<?xml version="1.0" encoding="utf-8"?>
<!-- Generator: Adobe Illustrator 16.0.0, SVG Export Plug-In . SVG Version: 6.00 Build 0)  -->
<!DOCTYPE svg PUBLIC "-//W3C//DTD SVG 1.1//EN" "http://www.w3.org/Graphics/SVG/1.1/DTD/svg11.dtd">
<svg version="1.1" id="Ebene_1" xmlns="http://www.w3.org/2000/svg" xmlns:xlink="http://www.w3.org/1999/xlink" x="0px" y="0px"
	 width="50px" height="50px" viewBox="0 0 50 50" enable-background="new 0 0 50 50" xml:space="preserve">
<rect fill="#FF6600" width="50" height="50"/>
<g>
	<path fill="#FFFFFF" d="M2.904,40.811c0.027-0.479,0.148-0.879,0.358-1.195c0.211-0.316,0.48-0.57,0.807-0.762
		c0.326-0.191,0.692-0.328,1.101-0.41c0.407-0.082,0.818-0.123,1.23-0.123c0.374,0,0.753,0.026,1.136,0.08
		c0.383,0.052,0.735,0.156,1.051,0.309c0.316,0.154,0.576,0.367,0.776,0.641c0.202,0.273,0.304,0.636,0.304,1.086v3.871
		c0,0.338,0.018,0.657,0.056,0.965c0.038,0.307,0.106,0.537,0.202,0.691H7.854c-0.039-0.115-0.07-0.232-0.094-0.353
		c-0.023-0.12-0.041-0.243-0.05-0.366c-0.327,0.334-0.71,0.57-1.152,0.705c-0.441,0.133-0.892,0.2-1.352,0.2
		c-0.355,0-0.687-0.042-0.993-0.129c-0.308-0.087-0.576-0.221-0.806-0.402c-0.23-0.184-0.411-0.413-0.539-0.692
		c-0.13-0.277-0.195-0.607-0.195-0.993c0-0.422,0.075-0.769,0.223-1.043c0.149-0.273,0.341-0.491,0.576-0.653
		c0.235-0.164,0.504-0.287,0.806-0.369c0.302-0.08,0.607-0.145,0.914-0.193s0.609-0.087,0.908-0.115
		c0.295-0.027,0.562-0.072,0.791-0.129c0.23-0.059,0.413-0.143,0.547-0.253c0.133-0.11,0.197-0.271,0.187-0.481
		c0-0.221-0.036-0.396-0.108-0.525s-0.168-0.23-0.288-0.303c-0.12-0.072-0.259-0.119-0.417-0.145
		c-0.159-0.021-0.329-0.035-0.511-0.035c-0.403,0-0.72,0.088-0.951,0.259c-0.23,0.173-0.365,0.462-0.402,0.864H2.904z M7.624,42.321
		c-0.087,0.077-0.195,0.136-0.324,0.18c-0.13,0.044-0.269,0.079-0.417,0.108c-0.148,0.029-0.305,0.053-0.468,0.072
		c-0.162,0.018-0.326,0.043-0.489,0.072c-0.153,0.027-0.305,0.067-0.453,0.115c-0.148,0.047-0.279,0.113-0.39,0.193
		c-0.11,0.082-0.198,0.186-0.266,0.31s-0.101,0.283-0.101,0.476c0,0.182,0.034,0.334,0.101,0.459
		c0.067,0.126,0.158,0.224,0.273,0.295c0.116,0.072,0.25,0.124,0.403,0.15c0.153,0.03,0.312,0.045,0.475,0.045
		c0.403,0,0.715-0.066,0.935-0.201c0.221-0.135,0.383-0.295,0.49-0.482c0.105-0.188,0.171-0.377,0.195-0.568
		c0.023-0.192,0.036-0.346,0.036-0.46V42.321z"/>
	<path fill="#FFFFFF" d="M15.812,45.012c-0.241,0.403-0.554,0.694-0.943,0.871c-0.389,0.179-0.828,0.267-1.317,0.267
		c-0.557,0-1.046-0.107-1.468-0.324c-0.423-0.215-0.771-0.508-1.043-0.878c-0.274-0.368-0.48-0.793-0.619-1.273
		c-0.141-0.479-0.21-0.979-0.21-1.496c0-0.499,0.069-0.98,0.21-1.447c0.139-0.465,0.344-0.874,0.619-1.229
		c0.272-0.354,0.615-0.641,1.028-0.856c0.412-0.217,0.893-0.324,1.439-0.324c0.441,0,0.861,0.094,1.26,0.281
		c0.398,0.186,0.712,0.462,0.942,0.826h0.029v-3.74h2.043v10.275h-1.942v-0.951H15.812z M15.727,41.336
		c-0.058-0.283-0.157-0.533-0.296-0.749c-0.139-0.216-0.319-0.391-0.54-0.526c-0.221-0.133-0.498-0.2-0.835-0.2
		c-0.335,0-0.619,0.067-0.849,0.2c-0.23,0.136-0.415,0.313-0.554,0.535c-0.14,0.221-0.241,0.471-0.302,0.754
		c-0.062,0.283-0.094,0.579-0.094,0.887c0,0.285,0.034,0.574,0.102,0.863c0.067,0.287,0.175,0.543,0.324,0.77
		c0.149,0.226,0.336,0.407,0.561,0.547c0.226,0.139,0.496,0.207,0.813,0.207c0.337,0,0.616-0.066,0.842-0.2
		c0.225-0.135,0.405-0.313,0.54-0.54c0.134-0.226,0.231-0.482,0.289-0.77c0.057-0.287,0.086-0.584,0.086-0.893
		C15.812,41.914,15.783,41.618,15.727,41.336z"/>
	<path fill="#FFFFFF" d="M20.647,35.688v3.74h0.03c0.248-0.383,0.586-0.664,1.014-0.84c0.427-0.178,0.87-0.268,1.332-0.268
		c0.374,0,0.743,0.077,1.108,0.23c0.364,0.153,0.692,0.389,0.985,0.705c0.293,0.316,0.53,0.722,0.713,1.216
		c0.181,0.495,0.274,1.081,0.274,1.765c0,0.68-0.093,1.269-0.274,1.762c-0.183,0.494-0.42,0.898-0.713,1.217
		c-0.292,0.314-0.621,0.551-0.985,0.704c-0.365,0.154-0.734,0.23-1.108,0.23c-0.547,0-1.036-0.086-1.469-0.259
		c-0.431-0.173-0.757-0.465-0.979-0.879h-0.029v0.951h-1.942V35.688H20.647z M23.958,41.344c-0.067-0.289-0.173-0.543-0.317-0.764
		c-0.143-0.221-0.323-0.396-0.539-0.525c-0.216-0.129-0.478-0.194-0.784-0.194c-0.297,0-0.557,0.065-0.777,0.194
		c-0.222,0.13-0.403,0.305-0.547,0.525c-0.144,0.221-0.249,0.475-0.315,0.764c-0.068,0.286-0.102,0.59-0.102,0.905
		c0,0.306,0.034,0.604,0.102,0.892c0.066,0.289,0.172,0.544,0.315,0.764c0.144,0.222,0.326,0.396,0.547,0.526
		c0.221,0.128,0.48,0.192,0.777,0.192c0.307,0,0.568-0.064,0.784-0.192c0.216-0.13,0.396-0.305,0.539-0.526
		c0.144-0.22,0.25-0.475,0.317-0.764c0.067-0.287,0.101-0.586,0.101-0.892C24.059,41.934,24.025,41.63,23.958,41.344z"/>
	<path fill="#FFFFFF" d="M26.734,37.371v-1.684h2.043v1.684H26.734z M28.777,38.522v7.44h-2.043v-7.44H28.777z"/>
	<path fill="#FFFFFF" d="M33.758,38.522v1.367h-1.496v3.685c0,0.344,0.057,0.574,0.172,0.689c0.114,0.115,0.346,0.174,0.69,0.174
		c0.115,0,0.226-0.005,0.331-0.015c0.106-0.01,0.206-0.024,0.303-0.044v1.584c-0.174,0.029-0.365,0.047-0.576,0.058
		c-0.211,0.01-0.418,0.014-0.618,0.014c-0.317,0-0.617-0.021-0.899-0.065c-0.283-0.042-0.533-0.127-0.75-0.251
		c-0.215-0.125-0.385-0.303-0.509-0.532c-0.126-0.23-0.188-0.533-0.188-0.906v-4.39h-1.239v-1.367h1.239v-2.231h2.044v2.231H33.758z
		"/>
	<path fill="#FFFFFF" d="M36.205,44.178c0.306,0.297,0.748,0.445,1.322,0.445c0.412,0,0.769-0.103,1.064-0.308
		c0.299-0.206,0.48-0.426,0.549-0.655h1.799c-0.289,0.892-0.73,1.529-1.324,1.914c-0.596,0.383-1.315,0.575-2.16,0.575
		c-0.584,0-1.112-0.093-1.582-0.281c-0.471-0.187-0.869-0.453-1.194-0.798c-0.327-0.345-0.579-0.758-0.757-1.237
		c-0.178-0.48-0.266-1.007-0.266-1.584c0-0.556,0.092-1.074,0.275-1.554c0.18-0.48,0.439-0.895,0.775-1.244
		c0.336-0.352,0.736-0.627,1.202-0.828c0.465-0.202,0.98-0.303,1.546-0.303c0.634,0,1.186,0.123,1.656,0.367
		c0.469,0.245,0.855,0.574,1.158,0.986s0.521,0.883,0.655,1.41c0.134,0.527,0.183,1.079,0.144,1.654H35.7
		C35.729,43.4,35.896,43.881,36.205,44.178z M38.514,40.264c-0.245-0.269-0.617-0.403-1.115-0.403c-0.326,0-0.597,0.056-0.812,0.165
		c-0.217,0.111-0.389,0.248-0.52,0.41c-0.129,0.164-0.22,0.336-0.271,0.518c-0.054,0.184-0.086,0.348-0.095,0.49h3.325
		C38.93,40.925,38.758,40.531,38.514,40.264z"/>
	<path fill="#FFFFFF" d="M48.082,43.526c-0.008-0.321-0.064-0.601-0.192-0.825c-0.134-0.234-0.312-0.43-0.531-0.59
		c-0.222-0.156-0.474-0.283-0.756-0.381c-0.282-0.094-0.574-0.178-0.87-0.244c-0.289-0.066-0.57-0.129-0.852-0.186
		c-0.277-0.059-0.523-0.124-0.74-0.195c-0.215-0.072-0.391-0.166-0.524-0.281c-0.134-0.114-0.202-0.264-0.202-0.445
		c0-0.154,0.039-0.276,0.115-0.367c0.077-0.091,0.17-0.16,0.281-0.209c0.109-0.047,0.232-0.08,0.365-0.093
		c0.136-0.016,0.26-0.022,0.375-0.022c0.365,0,0.682,0.07,0.95,0.209c0.269,0.14,0.417,0.406,0.446,0.799h1.942
		c-0.038-0.461-0.155-0.842-0.352-1.145s-0.444-0.545-0.741-0.727c-0.298-0.183-0.636-0.312-1.014-0.389
		c-0.381-0.076-0.771-0.115-1.174-0.115c-0.403,0-0.797,0.035-1.181,0.107s-0.729,0.197-1.036,0.374
		c-0.307,0.179-0.555,0.421-0.742,0.728s-0.279,0.701-0.279,1.181c0,0.327,0.066,0.603,0.201,0.827s0.312,0.412,0.533,0.561
		c0.219,0.148,0.471,0.27,0.755,0.359c0.282,0.092,0.573,0.171,0.87,0.238c0.729,0.152,1.297,0.307,1.705,0.459
		c0.409,0.156,0.613,0.387,0.613,0.693c0,0.182-0.045,0.332-0.131,0.453c-0.086,0.119-0.193,0.215-0.322,0.287
		c-0.131,0.072-0.275,0.125-0.432,0.158c-0.159,0.033-0.31,0.051-0.454,0.051c-0.202,0-0.396-0.023-0.583-0.071
		c-0.188-0.049-0.352-0.124-0.496-0.224c-0.145-0.101-0.262-0.23-0.354-0.389c-0.09-0.158-0.137-0.348-0.137-0.568h-1.943
		c0.02,0.498,0.133,0.914,0.338,1.244c0.208,0.331,0.471,0.598,0.793,0.799c0.32,0.201,0.688,0.346,1.101,0.433
		c0.412,0.087,0.835,0.129,1.267,0.129c0.423,0,0.837-0.04,1.244-0.122c0.107-0.021,0.186-0.082,0.287-0.111
		C46.451,44.896,47.062,43.979,48.082,43.526z"/>
</g>
</svg>
