<?xml version="1.0" encoding="utf-8"?>
<!-- Generator: Adobe Illustrator 16.0.0, SVG Export Plug-In . SVG Version: 6.00 Build 0)  -->
<!DOCTYPE svg PUBLIC "-//W3C//DTD SVG 1.1//EN" "http://www.w3.org/Graphics/SVG/1.1/DTD/svg11.dtd">
<svg version="1.1" id="Ebene_1" xmlns="http://www.w3.org/2000/svg" xmlns:xlink="http://www.w3.org/1999/xlink" x="0px" y="0px"
	 width="200px" height="200px" viewBox="0 0 200 200" enable-background="new 0 0 200 200" xml:space="preserve">
<rect x="61" y="63" fill="#FF6600" width="21" height="21"/>
<g>
	<path fill="#FFFFFF" d="M62.22,80.151c0.012-0.201,0.062-0.369,0.151-0.502c0.089-0.133,0.202-0.24,0.339-0.32
		s0.291-0.138,0.463-0.172c0.171-0.034,0.344-0.052,0.517-0.052c0.157,0,0.316,0.011,0.478,0.034
		c0.161,0.022,0.309,0.065,0.442,0.13c0.133,0.064,0.242,0.154,0.326,0.269c0.085,0.115,0.127,0.267,0.127,0.457v1.627
		c0,0.142,0.008,0.276,0.024,0.405c0.016,0.129,0.044,0.226,0.085,0.291h-0.871c-0.016-0.048-0.029-0.098-0.04-0.148
		c-0.01-0.051-0.017-0.102-0.021-0.154c-0.137,0.141-0.298,0.24-0.484,0.296c-0.186,0.056-0.375,0.084-0.568,0.084
		c-0.149,0-0.289-0.018-0.417-0.054c-0.129-0.037-0.242-0.093-0.339-0.169s-0.172-0.173-0.227-0.291
		c-0.055-0.117-0.082-0.256-0.082-0.417c0-0.177,0.031-0.323,0.094-0.438c0.062-0.115,0.143-0.207,0.242-0.275
		c0.099-0.069,0.211-0.12,0.339-0.154c0.127-0.034,0.255-0.062,0.384-0.082c0.129-0.021,0.256-0.037,0.381-0.048
		c0.125-0.012,0.236-0.03,0.333-0.055s0.173-0.06,0.23-0.106c0.056-0.046,0.083-0.114,0.079-0.203c0-0.093-0.015-0.166-0.045-0.221
		c-0.03-0.054-0.071-0.097-0.121-0.127s-0.109-0.05-0.175-0.061c-0.067-0.01-0.138-0.015-0.215-0.015
		c-0.169,0-0.302,0.037-0.399,0.109c-0.097,0.073-0.153,0.194-0.169,0.363H62.22z M64.204,80.787
		c-0.037,0.032-0.082,0.058-0.136,0.076c-0.055,0.018-0.113,0.033-0.175,0.045s-0.128,0.022-0.197,0.03
		c-0.068,0.008-0.137,0.018-0.206,0.03c-0.064,0.012-0.128,0.028-0.19,0.048s-0.117,0.047-0.164,0.082s-0.083,0.078-0.112,0.13
		c-0.028,0.053-0.042,0.119-0.042,0.2c0,0.077,0.014,0.141,0.042,0.193c0.028,0.053,0.066,0.094,0.115,0.124
		c0.049,0.03,0.105,0.052,0.169,0.063c0.064,0.012,0.131,0.019,0.2,0.019c0.169,0,0.3-0.028,0.393-0.085
		c0.093-0.056,0.161-0.124,0.206-0.203s0.072-0.158,0.082-0.239c0.01-0.081,0.015-0.145,0.015-0.193V80.787z"/>
	<path fill="#FFFFFF" d="M67.646,81.917c-0.101,0.169-0.233,0.292-0.396,0.366c-0.164,0.075-0.348,0.112-0.554,0.112
		c-0.234,0-0.439-0.045-0.617-0.136c-0.178-0.09-0.324-0.213-0.438-0.369c-0.115-0.155-0.202-0.334-0.26-0.536
		c-0.059-0.201-0.088-0.411-0.088-0.629c0-0.209,0.029-0.412,0.088-0.608c0.059-0.195,0.145-0.368,0.26-0.517
		c0.115-0.149,0.259-0.269,0.432-0.36s0.375-0.136,0.605-0.136c0.186,0,0.362,0.04,0.529,0.118s0.299,0.194,0.396,0.348h0.012
		v-1.572h0.859v4.318h-0.816v-0.399H67.646z M67.609,80.373c-0.024-0.119-0.066-0.224-0.124-0.315
		c-0.059-0.09-0.134-0.164-0.227-0.221c-0.093-0.056-0.209-0.084-0.351-0.084s-0.26,0.028-0.357,0.084
		c-0.097,0.057-0.174,0.131-0.233,0.224s-0.101,0.198-0.127,0.317c-0.026,0.119-0.04,0.243-0.04,0.372
		c0,0.121,0.014,0.242,0.042,0.363s0.074,0.229,0.136,0.324s0.141,0.171,0.236,0.229c0.095,0.059,0.208,0.088,0.342,0.088
		c0.141,0,0.259-0.028,0.354-0.084c0.095-0.057,0.17-0.132,0.227-0.227c0.056-0.095,0.097-0.203,0.121-0.324
		c0.024-0.121,0.036-0.246,0.036-0.375C67.646,80.615,67.633,80.491,67.609,80.373z"/>
	<path fill="#FFFFFF" d="M69.678,77.999v1.572h0.012c0.104-0.161,0.247-0.279,0.426-0.354c0.179-0.075,0.366-0.112,0.56-0.112
		c0.157,0,0.312,0.033,0.466,0.097c0.153,0.064,0.291,0.163,0.414,0.296c0.123,0.133,0.223,0.303,0.299,0.511
		c0.077,0.208,0.115,0.455,0.115,0.741c0,0.286-0.039,0.533-0.115,0.741c-0.077,0.208-0.176,0.378-0.299,0.511
		c-0.123,0.133-0.261,0.232-0.414,0.296c-0.153,0.064-0.309,0.097-0.466,0.097c-0.23,0-0.436-0.036-0.617-0.109
		c-0.181-0.073-0.318-0.195-0.411-0.369h-0.012v0.399h-0.816v-4.318H69.678z M71.069,80.375c-0.028-0.121-0.073-0.228-0.133-0.321
		c-0.06-0.093-0.136-0.166-0.227-0.221c-0.091-0.054-0.201-0.082-0.33-0.082c-0.125,0-0.234,0.027-0.327,0.082
		c-0.093,0.055-0.169,0.128-0.23,0.221s-0.105,0.2-0.133,0.321c-0.028,0.121-0.042,0.248-0.042,0.381
		c0,0.129,0.014,0.254,0.042,0.375c0.028,0.121,0.072,0.228,0.133,0.321s0.137,0.166,0.23,0.221
		c0.093,0.054,0.202,0.082,0.327,0.082c0.129,0,0.239-0.027,0.33-0.082c0.091-0.055,0.167-0.128,0.227-0.221
		c0.061-0.093,0.105-0.2,0.133-0.321s0.042-0.246,0.042-0.375C71.111,80.624,71.097,80.496,71.069,80.375z"/>
	<path fill="#FFFFFF" d="M72.236,78.706v-0.708h0.859v0.708H72.236z M73.095,79.19v3.127h-0.859V79.19H73.095z"/>
	<path fill="#FFFFFF" d="M75.188,79.19v0.575h-0.629v1.548c0,0.145,0.024,0.242,0.072,0.29s0.146,0.073,0.291,0.073
		c0.048,0,0.095-0.002,0.139-0.006c0.044-0.004,0.086-0.01,0.127-0.019v0.666c-0.073,0.012-0.153,0.02-0.242,0.024
		c-0.088,0.004-0.175,0.006-0.26,0.006c-0.133,0-0.259-0.009-0.378-0.027c-0.119-0.018-0.224-0.053-0.315-0.106
		c-0.09-0.052-0.162-0.127-0.214-0.224c-0.053-0.097-0.079-0.224-0.079-0.381v-1.845h-0.521V79.19H73.7v-0.938h0.859v0.938H75.188z"
		/>
	<path fill="#FFFFFF" d="M76.216,81.567c0.129,0.125,0.314,0.188,0.556,0.188c0.173,0,0.323-0.043,0.448-0.13
		c0.125-0.087,0.202-0.179,0.23-0.275h0.756c-0.121,0.375-0.307,0.643-0.556,0.805c-0.25,0.161-0.553,0.242-0.908,0.242
		c-0.246,0-0.468-0.039-0.665-0.118c-0.198-0.079-0.365-0.19-0.502-0.335c-0.137-0.145-0.243-0.318-0.318-0.52
		s-0.112-0.423-0.112-0.666c0-0.234,0.039-0.452,0.115-0.653c0.076-0.202,0.185-0.376,0.326-0.523
		c0.141-0.147,0.31-0.263,0.505-0.348c0.195-0.085,0.412-0.127,0.65-0.127c0.266,0,0.498,0.052,0.696,0.154
		c0.197,0.103,0.36,0.241,0.487,0.415s0.219,0.371,0.275,0.593c0.056,0.222,0.077,0.454,0.061,0.695h-2.256
		C76.016,81.24,76.086,81.442,76.216,81.567z M77.187,79.922c-0.103-0.113-0.259-0.169-0.469-0.169
		c-0.137,0-0.251,0.023-0.342,0.069s-0.163,0.104-0.218,0.172c-0.054,0.069-0.093,0.141-0.115,0.218
		c-0.022,0.077-0.036,0.146-0.04,0.206h1.397C77.361,80.2,77.289,80.035,77.187,79.922z"/>
	<path fill="#FFFFFF" d="M81.208,81.293c-0.003-0.135-0.027-0.252-0.081-0.346c-0.056-0.099-0.131-0.181-0.224-0.248
		c-0.093-0.066-0.199-0.12-0.317-0.16c-0.119-0.04-0.241-0.075-0.366-0.103c-0.121-0.028-0.24-0.055-0.357-0.079
		c-0.117-0.024-0.221-0.052-0.312-0.082c-0.09-0.03-0.164-0.069-0.221-0.118c-0.056-0.048-0.084-0.111-0.084-0.188
		c0-0.064,0.016-0.116,0.048-0.154s0.071-0.067,0.118-0.088c0.046-0.02,0.098-0.033,0.154-0.039
		c0.057-0.006,0.109-0.009,0.157-0.009c0.153,0,0.287,0.029,0.399,0.088s0.175,0.17,0.188,0.335h0.816
		c-0.016-0.193-0.065-0.354-0.148-0.48c-0.083-0.127-0.187-0.229-0.312-0.306s-0.267-0.131-0.426-0.163
		c-0.16-0.032-0.324-0.049-0.493-0.049s-0.335,0.015-0.496,0.045s-0.306,0.083-0.436,0.157c-0.129,0.075-0.233,0.177-0.312,0.306
		s-0.118,0.294-0.118,0.496c0,0.137,0.028,0.253,0.084,0.348c0.057,0.095,0.131,0.173,0.224,0.236
		c0.092,0.062,0.198,0.113,0.317,0.151c0.119,0.038,0.241,0.071,0.366,0.1c0.307,0.064,0.545,0.129,0.717,0.193
		c0.171,0.065,0.257,0.162,0.257,0.291c0,0.077-0.018,0.14-0.055,0.19c-0.036,0.051-0.082,0.091-0.136,0.121
		c-0.055,0.03-0.115,0.052-0.182,0.066s-0.13,0.021-0.19,0.021c-0.085,0-0.167-0.01-0.245-0.03
		c-0.079-0.021-0.148-0.052-0.208-0.094c-0.061-0.042-0.11-0.097-0.148-0.164c-0.038-0.066-0.058-0.146-0.058-0.239h-0.816
		c0.008,0.209,0.056,0.384,0.142,0.523c0.087,0.139,0.198,0.251,0.333,0.336c0.135,0.084,0.289,0.145,0.462,0.182
		c0.173,0.036,0.351,0.054,0.532,0.054c0.178,0,0.352-0.017,0.523-0.051c0.045-0.009,0.078-0.035,0.12-0.047
		C80.522,81.869,80.779,81.483,81.208,81.293z"/>
</g>
</svg>
