<?xml version="1.0" encoding="UTF-8" standalone="no"?>
<svg width="94px" height="22px" viewBox="0 0 94 22" version="1.1" xmlns="http://www.w3.org/2000/svg" xmlns:xlink="http://www.w3.org/1999/xlink" xmlns:sketch="http://www.bohemiancoding.com/sketch/ns">
    <!-- Generator: Sketch 3.4.2 (15855) - http://www.bohemiancoding.com/sketch -->
    <title>Group</title>
    <desc>Created with Sketch.</desc>
    <defs></defs>
    <g id="Page-1" stroke="none" stroke-width="1" fill="none" fill-rule="evenodd" sketch:type="MSPage">
        <g id="adbites_white" sketch:type="MSLayerGroup" transform="translate(-49.000000, -3.000000)" fill="#FFFFFF">
            <g id="Group" transform="translate(49.000000, 3.000000)" sketch:type="MSShapeGroup">
                <path d="M0.474300654,10.8808333 C0.533895425,9.89755556 0.780875817,9.08111111 1.21585621,8.43272222 C1.65022222,7.78433333 2.20377778,7.26305556 2.87652288,6.87011111 C3.54803922,6.47716667 4.30433987,6.19605556 5.14481046,6.02922222 C5.98528105,5.86238889 6.83005229,5.77866667 7.67973856,5.77866667 C8.45078431,5.77866667 9.23104575,5.83122222 10.022366,5.93938889 C10.8124575,6.04816667 11.5343529,6.26022222 12.1868235,6.57494444 C12.8392941,6.88966667 13.3731895,7.326 13.7878954,7.887 C14.2032157,8.448 14.4108758,9.18988889 14.4108758,10.1132778 L14.4108758,18.0479444 C14.4108758,18.7360556 14.4501961,19.3948333 14.529451,20.0236667 C14.6080915,20.6525 14.7469412,21.1248889 14.9447712,21.4383889 L10.6748366,21.4383889 C10.5955817,21.2031111 10.5310719,20.9617222 10.4819216,20.7154444 C10.4321569,20.471 10.3971373,20.2204444 10.3780915,19.9643889 C9.70534641,20.6525 8.9152549,21.1346667 8.00597386,21.4096667 C7.09669281,21.6840556 6.16775163,21.8227778 5.21853595,21.8227778 C4.48681046,21.8227778 3.80484967,21.7335556 3.17265359,21.5557222 C2.53984314,21.3791111 1.98628758,21.1041111 1.51137255,20.7313333 C1.03768627,20.3567222 0.666601307,19.8849444 0.399346405,19.3147778 C0.133320261,18.7452222 0,18.0668889 0,17.2803889 C0,16.4162778 0.152980392,15.7037222 0.460169935,15.1415 C0.766130719,14.5817222 1.16117647,14.135 1.64592157,13.8001111 C2.13005229,13.4664444 2.68360784,13.2158889 3.30720261,13.0490556 C3.92956863,12.8828333 4.55684967,12.7502222 5.18966013,12.6506111 C5.82185621,12.5528333 6.4448366,12.4733889 7.05798693,12.4141111 C7.67052288,12.3548333 8.21424837,12.2674444 8.68854902,12.1495 C9.16284967,12.0315556 9.53823529,11.8592222 9.81532026,11.6318889 C10.0917908,11.407 10.2201961,11.0782222 10.2005359,10.6443333 C10.2005359,10.1933333 10.1261961,9.83338889 9.9787451,9.56755556 C9.83006536,9.30294444 9.63223529,9.09638889 9.38586928,8.9485 C9.13827451,8.80061111 8.85197386,8.70222222 8.52573856,8.65333333 C8.19950327,8.60444444 7.84869281,8.58 7.47330719,8.58 C6.64328105,8.58 5.99081046,8.75722222 5.5165098,9.11166667 C5.04220915,9.46488889 4.76512418,10.0546111 4.68586928,10.8808333 L0.474300654,10.8808333 L0.474300654,10.8808333 Z M10.1999216,13.9773333 C10.022366,14.135 9.79996078,14.2584444 9.53270588,14.3458333 C9.26606536,14.4350556 8.97976471,14.509 8.67318954,14.5676667 C8.36661438,14.6263333 8.0459085,14.6758333 7.70984314,14.7143333 C7.3731634,14.7546667 7.03771242,14.8035556 6.70164706,14.8628333 C6.38462745,14.9221111 6.07375163,14.9997222 5.76717647,15.0981111 C5.46060131,15.1965 5.19396078,15.3291111 4.96602614,15.4959444 C4.73870588,15.6627778 4.55562092,15.8742222 4.418,16.1308889 C4.27915033,16.3857222 4.21033987,16.7108333 4.21033987,17.1043889 C4.21033987,17.4765556 4.27915033,17.7925 4.418,18.0479444 C4.55562092,18.3033889 4.74362092,18.5050556 4.98077124,18.6511111 C5.21792157,18.7996111 5.49500654,18.9028889 5.81141176,18.9609444 C6.12781699,19.0214444 6.45343791,19.0501667 6.79011765,19.0501667 C7.62014379,19.0501667 8.26216993,18.9126667 8.71742484,18.6370556 C9.17145098,18.3620556 9.50813072,18.0320556 9.72562092,17.6495 C9.94311111,17.2657222 10.0764314,16.8776667 10.1255817,16.4841111 C10.1753464,16.0899444 10.1999216,15.7770556 10.1999216,15.5405556 L10.1999216,13.9773333 L10.1999216,13.9773333 Z" id="Shape"></path>
                <path d="M27.0707712,19.492 C26.5768105,20.3188333 25.9298693,20.9128333 25.128719,21.2776667 C24.3287974,21.6400556 23.423817,21.8233889 22.4156209,21.8233889 C21.2691895,21.8233889 20.2603791,21.6021667 19.3910327,21.1597222 C18.5204575,20.7160556 17.8040915,20.1177778 17.2413203,19.3606111 C16.6779346,18.6040556 16.2521699,17.7338333 15.9664837,16.7505556 C15.6795686,15.7678889 15.5358039,14.7455 15.5358039,13.6821667 C15.5358039,12.6603889 15.6789542,11.6728333 15.9664837,10.7182778 C16.2521699,9.76494444 16.6779346,8.92405556 17.2413203,8.19683333 C17.8040915,7.47022222 18.5106275,6.88477778 19.3615425,6.44172222 C20.2106144,5.99866667 21.1997647,5.77927778 22.3265359,5.77927778 C23.2352026,5.77927778 24.1008627,5.97055556 24.9210588,6.35311111 C25.7412549,6.73688889 26.3894248,7.30155556 26.8637255,8.04894444 L26.9233203,8.04894444 L26.9233203,0.381333333 L31.1336601,0.381333333 L31.1336601,21.439 L27.1309804,21.439 L27.1309804,19.492 L27.0707712,19.492 L27.0707712,19.492 Z M26.8938301,11.9576111 C26.7752549,11.3770556 26.5725098,10.8661667 26.2855948,10.4231111 C25.9986797,9.98005556 25.6282092,9.62194444 25.1735686,9.34755556 C24.7183137,9.07194444 24.1457124,8.93444444 23.4539216,8.93444444 C22.7615163,8.93444444 22.179085,9.07194444 21.7041699,9.34755556 C21.2298693,9.62255556 20.8483399,9.98555556 20.5626536,10.439 C20.2757386,10.8912222 20.0680784,11.407 19.9396732,11.9863333 C19.8106536,12.5662778 19.7467582,13.1706667 19.7467582,13.8001111 C19.7467582,14.3910556 19.8155686,14.9813889 19.9544183,15.5698889 C20.0926536,16.1596111 20.3150588,16.687 20.621634,17.1477778 C20.9275948,17.6103889 21.3134248,17.9837778 21.7778954,18.2685556 C22.2417516,18.5539444 22.8008366,18.6963333 23.4533072,18.6963333 C24.145098,18.6963333 24.7232288,18.5582222 25.1876993,18.2826111 C25.6515556,18.0076111 26.0220261,17.6391111 26.2997255,17.1771111 C26.5761961,16.7145 26.7740261,16.1883333 26.8926013,15.5992222 C27.0105621,15.0088889 27.0701569,14.4002222 27.0701569,13.7701667 C27.0707712,13.1425556 27.0117908,12.5381667 26.8938301,11.9576111 L26.8938301,11.9576111 Z" id="Shape"></path>
                <path d="M37.0341569,0.381333333 L37.0341569,8.04894444 L37.0937516,8.04894444 C37.6073725,7.26305556 38.3040784,6.688 39.1844837,6.32438889 C40.0636601,5.96016667 40.9778562,5.77866667 41.9270719,5.77866667 C42.6975033,5.77866667 43.458719,5.93511111 44.2101046,6.24983333 C44.9614902,6.56455556 45.6379216,7.04611111 46.2412418,7.6945 C46.8439477,8.34411111 47.3329935,9.17461111 47.7089935,10.1878333 C48.0843791,11.2004444 48.2723791,12.4049444 48.2723791,13.8001111 C48.2723791,15.1965 48.0843791,16.401 47.7089935,17.4136111 C47.3329935,18.4256111 46.8439477,19.2567222 46.2412418,19.9057222 C45.6379216,20.5547222 44.9614902,21.0368889 44.2101046,21.351 C43.4581046,21.6645 42.6975033,21.8227778 41.9270719,21.8227778 C40.8003007,21.8227778 39.7921046,21.6461667 38.9024837,21.2917222 C38.0134771,20.9372778 37.340732,20.3377778 36.8860915,19.492 L36.8271111,19.492 L36.8271111,21.439 L32.823817,21.439 L32.823817,0.381333333 L37.0341569,0.381333333 L37.0341569,0.381333333 Z M43.8537647,11.9722778 C43.7155294,11.3819444 43.4980392,10.8618889 43.2012941,10.4084444 C42.9051634,9.95683333 42.5340784,9.59811111 42.089268,9.33227778 C41.6444575,9.06644444 41.1056471,8.93444444 40.473451,8.93444444 C39.8603007,8.93444444 39.3270196,9.06705556 38.8723791,9.33227778 C38.4177386,9.59811111 38.0417386,9.95622222 37.7456078,10.4084444 C37.4488627,10.8612778 37.2313725,11.3819444 37.0931373,11.9722778 C36.9542876,12.5626111 36.8854771,13.1816667 36.8854771,13.8300556 C36.8854771,14.4601111 36.9542876,15.0681667 37.0931373,15.6591111 C37.2313725,16.2482222 37.4488627,16.7695 37.7456078,17.2229444 C38.0417386,17.6745556 38.4177386,18.0326667 38.8723791,18.2991111 C39.3270196,18.5649444 39.8603007,18.6969444 40.473451,18.6969444 C41.1056471,18.6969444 41.6444575,18.5643333 42.089268,18.2991111 C42.5340784,18.0326667 42.9051634,17.6751667 43.2012941,17.2229444 C43.4980392,16.7701111 43.7155294,16.2482222 43.8537647,15.6591111 C43.992,15.0681667 44.0614248,14.4601111 44.0614248,13.8300556 C44.0614248,13.1810556 43.992,12.5626111 43.8537647,11.9722778 L43.8537647,11.9722778 Z" id="Shape"></path>
                <path d="M49.5767059,3.83166667 L49.5767059,0.381333333 L53.7876601,0.381333333 L53.7876601,3.83166667 L49.5767059,3.83166667 L49.5767059,3.83166667 Z M53.7870458,6.19116667 L53.7870458,21.439 L49.5760915,21.439 L49.5760915,6.19116667 L53.7870458,6.19116667 L53.7870458,6.19116667 Z" id="Shape"></path>
                <path d="M64.0465621,6.19116667 L64.0465621,8.99311111 L60.9623791,8.99311111 L60.9623791,16.5427778 C60.9623791,17.2498333 61.0809542,17.7228333 61.3181046,17.9587222 C61.557098,18.1946111 62.0307843,18.3125556 62.7422353,18.3125556 C62.9787712,18.3125556 63.2054771,18.3021667 63.4235817,18.282 C63.6410719,18.2636667 63.8481176,18.2331111 64.0465621,18.194 L64.0465621,21.4377778 C63.6902222,21.4976667 63.2951765,21.5361667 62.8608105,21.5551111 C62.4252157,21.5758889 62.0006797,21.5862778 61.5853595,21.5862778 C60.9328889,21.5862778 60.3148235,21.5416667 59.7323922,21.4524444 C59.1493464,21.3638333 58.6351111,21.1927222 58.190915,20.9360556 C57.7454902,20.6806111 57.3946797,20.317 57.1372549,19.8452222 C56.8798301,19.3728333 56.7514248,18.7537778 56.7514248,17.9874444 L56.7514248,8.99188889 L54.2017516,8.99188889 L54.2017516,6.18994444 L56.7514248,6.18994444 L56.7514248,1.61944444 L60.9623791,1.61944444 L60.9623791,6.19116667 L64.0465621,6.19116667 L64.0465621,6.19116667 Z" id="Shape"></path>
                <path d="M69.0863137,17.7827222 C69.7185098,18.3926111 70.6284052,18.6969444 71.8135425,18.6969444 C72.6644575,18.6969444 73.3949542,18.4848889 74.0081046,18.0626111 C74.6212549,17.6403333 74.9966405,17.1923889 75.1348758,16.7212222 L78.8414248,16.7212222 C78.248549,18.5502778 77.339268,19.8574444 76.1141961,20.6433333 C74.8878954,21.4298333 73.4060131,21.824 71.6660915,21.824 C70.4600654,21.824 69.3732288,21.6321111 68.4043529,21.2483333 C67.4360915,20.8657778 66.615281,20.3194444 65.9431503,19.6111667 C65.2710196,18.9041111 64.7518693,18.0577222 64.3869281,17.0750556 C64.0207582,16.0917778 63.8370588,15.0107222 63.8370588,13.8306667 C63.8370588,12.6915556 64.0256732,11.6282222 64.4010588,10.6449444 C64.7752157,9.66227778 65.3103399,8.81161111 66.0015163,8.09416667 C66.6939216,7.37672222 67.5196471,6.81144444 68.4780784,6.39833333 C69.4365098,5.98522222 70.4987712,5.77927778 71.6654771,5.77927778 C72.9698039,5.77927778 74.1064052,6.02983333 75.0758954,6.53033333 C76.0441569,7.03083333 76.8397778,7.70488889 77.4627582,8.55066667 C78.0857386,9.39644444 78.5342353,10.3595556 78.8113203,11.4406111 C79.0884052,12.5228889 79.1867059,13.6540556 79.107451,14.8328889 L68.0486275,14.8328889 C68.1069935,16.1889444 68.4541176,17.1728333 69.0863137,17.7827222 L69.0863137,17.7827222 Z M73.8452941,9.76005556 C73.3415033,9.20944444 72.5759869,8.93444444 71.5475163,8.93444444 C70.8753856,8.93444444 70.3175294,9.0475 69.8721046,9.27361111 C69.4266797,9.49972222 69.0715686,9.77961111 68.8055425,10.1132778 C68.5376732,10.4487778 68.350902,10.8026111 68.2415425,11.176 C68.132183,11.5481667 68.068902,11.8830556 68.0486275,12.1776111 L74.8977255,12.1776111 C74.6998954,11.1167222 74.3496993,10.3106667 73.8452941,9.76005556 L73.8452941,9.76005556 Z" id="Shape"></path>
                <path d="M93.5717778,16.6766111 C93.5730065,16.6313889 93.5791503,16.5892222 93.5791503,16.5433889 C93.5791503,15.8363333 93.440915,15.2411111 93.1638301,14.7589444 C92.8867451,14.2773889 92.5218039,13.8746667 92.0671634,13.5495556 C91.6125229,13.2256667 91.0927582,12.9653333 90.5109412,12.7679444 C89.9266667,12.5723889 89.3288758,12.4043333 88.7157255,12.2668333 C88.1228497,12.1287222 87.5398039,12.001 86.9672026,11.8830556 C86.3933725,11.7657222 85.8846667,11.6318889 85.4398562,11.4858333 C84.9944314,11.3379444 84.6344052,11.1454444 84.3573203,10.9107778 C84.0802353,10.6742778 83.942,10.3699444 83.942,9.99533333 C83.942,9.68183333 84.0212549,9.43188889 84.1797647,9.24427778 C84.3382745,9.05727778 84.5299608,8.91427778 84.7578954,8.8165 C84.9846013,8.71811111 85.2364967,8.65394444 85.5135817,8.62522222 C85.7894379,8.59466667 86.0474771,8.58061111 86.2840131,8.58061111 C87.0353987,8.58061111 87.6878693,8.723 88.2414248,9.00838889 C88.7949804,9.29377778 89.1015556,9.83888889 89.1605359,10.6449444 L93.1638301,10.6449444 C93.0845752,9.702 92.8425098,8.91977778 92.437634,8.30011111 C92.0321438,7.68105556 91.5222092,7.18422222 90.9102876,6.81144444 C90.2971373,6.43683333 89.599817,6.17222222 88.8201699,6.01455556 C88.0392941,5.85688889 87.2338431,5.77927778 86.4032026,5.77927778 C85.5725621,5.77927778 84.7628105,5.85261111 83.9721046,5.99927778 C83.1801699,6.14777778 82.4699477,6.40322222 81.8371373,6.76683333 C81.2037124,7.13105556 80.6950065,7.62727778 80.3097908,8.25611111 C79.9245752,8.88616667 79.7316601,9.69222222 79.7316601,10.6748889 C79.7316601,11.3434444 79.8698954,11.9099444 80.1469804,12.3707222 C80.4240654,12.8327222 80.7890065,13.2165 81.2436471,13.5208333 C81.6982876,13.8263889 82.2180523,14.0714444 82.801098,14.2590556 C83.3841438,14.4466667 83.9819346,14.6067778 84.595085,14.7455 C86.0972418,15.059 87.2688627,15.3743333 88.108719,15.6884444 C88.9485752,16.0037778 89.3688105,16.4761667 89.3688105,17.105 C89.3688105,17.4771667 89.2797255,17.7876111 89.1021699,18.0332778 C88.9246144,18.2795556 88.7015948,18.4763333 88.4349542,18.6242222 C88.167085,18.7702778 87.8709542,18.8796667 87.544719,18.9475 C87.2197124,19.0165556 86.9076078,19.0513889 86.6108627,19.0513889 C86.1955425,19.0513889 85.7949673,19.0025 85.4097516,18.9041111 C85.0245359,18.8051111 84.6835556,18.6523333 84.3874248,18.447 C84.0912941,18.2404444 83.8486144,17.9746111 83.66,17.6507222 C83.4726144,17.3262222 83.3792288,16.9381667 83.3792288,16.4853333 L79.3759346,16.4853333 C79.4140261,17.5083333 79.6468758,18.3583889 80.0720261,19.0361111 C80.4965621,19.7150556 81.0402876,20.2607778 81.7025882,20.6745 C82.3648889,21.087 83.1211895,21.3809444 83.9714902,21.5575556 C84.8211765,21.7347778 85.6911373,21.8246111 86.5801438,21.8246111 C87.4501046,21.8246111 88.3059346,21.7402778 89.1457908,21.5734444 C89.6305359,21.4768889 90.0759608,21.3271667 90.499268,21.1481111 C90.620915,19.2481667 91.6469281,17.4221667 93.5717778,16.6766111 L93.5717778,16.6766111 Z" id="Shape"></path>
            </g>
        </g>
    </g>
</svg>