<?xml version="1.0" encoding="UTF-8" standalone="no"?>
<svg width="124px" height="34px" viewBox="0 0 124 34" version="1.1" xmlns="http://www.w3.org/2000/svg" xmlns:xlink="http://www.w3.org/1999/xlink" xmlns:sketch="http://www.bohemiancoding.com/sketch/ns">
    <!-- Generator: Sketch 3.4.2 (15855) - http://www.bohemiancoding.com/sketch -->
    <title>adbites_logo</title>
    <desc>Created with Sketch.</desc>
    <defs></defs>
    <g id="Page-1" stroke="none" stroke-width="1" fill="none" fill-rule="evenodd" sketch:type="MSPage">
        <g id="adbites_logo" sketch:type="MSLayerGroup">
            <rect id="Rectangle-1" fill="#FF6600" sketch:type="MSShapeGroup" x="0" y="0" width="124" height="34"></rect>
            <g id="Page-1" transform="translate(6.000000, 4.000000)" fill="#FFFFFF" sketch:type="MSShapeGroup">
                <g id="adbites_white">
                    <g id="Group">
                        <path d="M0.560078431,12.8591667 C0.63045098,11.6971111 0.922098039,10.7322222 1.4357451,9.96594444 C1.94866667,9.19966667 2.60233333,8.58361111 3.3967451,8.11922222 C4.18970588,7.65483333 5.08278431,7.32261111 6.0752549,7.12544444 C7.06772549,6.92827778 8.06527451,6.82933333 9.06862745,6.82933333 C9.97911765,6.82933333 10.9004902,6.89144444 11.8349216,7.01927778 C12.767902,7.14783333 13.6203529,7.39844444 14.3908235,7.77038889 C15.1612941,8.14233333 15.7917451,8.658 16.281451,9.321 C16.7718824,9.984 17.017098,10.8607778 17.017098,11.9520556 L17.017098,21.3293889 C17.017098,22.1426111 17.0635294,22.9211667 17.1571176,23.6643333 C17.2499804,24.4075 17.4139412,24.9657778 17.647549,25.3362778 L12.6053922,25.3362778 C12.5118039,25.0582222 12.4356275,24.7729444 12.3775882,24.4818889 C12.3188235,24.193 12.2774706,23.8968889 12.2549804,23.5942778 C11.4605686,24.4075 10.5275882,24.9773333 9.45386275,25.3023333 C8.38013725,25.6266111 7.28319608,25.7905556 6.16231373,25.7905556 C5.2982549,25.7905556 4.49296078,25.6851111 3.74643137,25.4749444 C2.99917647,25.2662222 2.3455098,24.9412222 1.78470588,24.5006667 C1.22535294,24.0579444 0.787156863,23.5003889 0.471568627,22.8265556 C0.157431373,22.1534444 0,21.3517778 0,20.4222778 C0,19.4010556 0.180647059,18.5589444 0.543392157,17.8945 C0.904686275,17.2329444 1.37117647,16.705 1.94358824,16.3092222 C2.51527451,15.9148889 3.16894118,15.6187778 3.90531373,15.4216111 C4.64023529,15.2251667 5.38096078,15.0684444 6.12821569,14.9507222 C6.8747451,14.8351667 7.61039216,14.7412778 8.33443137,14.6712222 C9.0577451,14.6011667 9.69980392,14.4978889 10.2598824,14.3585 C10.8199608,14.2191111 11.2632353,14.0154444 11.5904314,13.7467778 C11.916902,13.481 12.0685294,13.0924444 12.0453137,12.5796667 C12.0453137,12.0466667 11.9575294,11.6212778 11.7834118,11.3071111 C11.6078431,10.9943889 11.3742353,10.7502778 11.0833137,10.5755 C10.7909412,10.4007222 10.4528627,10.2844444 10.0676275,10.2266667 C9.68239216,10.1688889 9.26813725,10.14 8.82486275,10.14 C7.84472549,10.14 7.0742549,10.3494444 6.51417647,10.7683333 C5.95409804,11.1857778 5.62690196,11.8827222 5.53331373,12.8591667 L0.560078431,12.8591667 L0.560078431,12.8591667 L0.560078431,12.8591667 Z M12.0445882,16.5186667 C11.8349216,16.705 11.5722941,16.8508889 11.2567059,16.9541667 C10.9418431,17.0596111 10.6037647,17.147 10.2417451,17.2163333 C9.87972549,17.2856667 9.50101961,17.3441667 9.10417647,17.3896667 C8.70660784,17.4373333 8.3104902,17.4951111 7.91364706,17.5651667 C7.53929412,17.6352222 7.17219608,17.7269444 6.81017647,17.8432222 C6.44815686,17.9595 6.13329412,18.1162222 5.86413725,18.3133889 C5.59570588,18.5105556 5.3795098,18.7604444 5.217,19.0637778 C5.05303922,19.3649444 4.97178431,19.7491667 4.97178431,20.2142778 C4.97178431,20.6541111 5.05303922,21.0275 5.217,21.3293889 C5.3795098,21.6312778 5.6015098,21.8696111 5.88154902,22.0422222 C6.16158824,22.2177222 6.48878431,22.3397778 6.86241176,22.4083889 C7.23603922,22.4798889 7.62054902,22.5138333 8.01811765,22.5138333 C8.9982549,22.5138333 9.75639216,22.3513333 10.2939804,22.0256111 C10.8301176,21.7006111 11.2276863,21.3106111 11.4845098,20.8585 C11.7413333,20.4049444 11.8987647,19.9463333 11.9568039,19.4812222 C12.0155686,19.0153889 12.0445882,18.6456111 12.0445882,18.3661111 L12.0445882,16.5186667 L12.0445882,16.5186667 L12.0445882,16.5186667 Z" id="Shape"></path>
                        <path d="M31.966549,23.036 C31.3832549,24.0131667 30.6193137,24.7151667 29.6732745,25.1463333 C28.7286863,25.5746111 27.6600392,25.7912778 26.4695098,25.7912778 C25.1157451,25.7912778 23.9244902,25.5298333 22.8979216,25.0069444 C21.869902,24.4826111 21.0239804,23.7755556 20.3594314,22.8807222 C19.6941569,21.9866111 19.1913922,20.9581667 18.8540392,19.7961111 C18.5152353,18.6347778 18.3454706,17.4265 18.3454706,16.1698333 C18.3454706,14.9622778 18.5145098,13.7951667 18.8540392,12.6670556 C19.1913922,11.5403889 19.6941569,10.5466111 20.3594314,9.68716667 C21.0239804,8.82844444 21.8582941,8.13655556 22.863098,7.61294444 C23.8657255,7.08933333 25.0337647,6.83005556 26.3643137,6.83005556 C27.4373137,6.83005556 28.4595294,7.05611111 29.4280588,7.50822222 C30.3965882,7.96177778 31.1619804,8.62911111 31.7220588,9.51238889 L31.7924314,9.51238889 L31.7924314,0.450666667 L36.7642157,0.450666667 L36.7642157,25.337 L32.0376471,25.337 L32.0376471,23.036 L31.966549,23.036 L31.966549,23.036 L31.966549,23.036 Z M31.7576078,14.1317222 C31.6175882,13.4456111 31.3781765,12.8418333 31.0393725,12.3182222 C30.7005686,11.7946111 30.263098,11.3713889 29.7262353,11.0471111 C29.1886471,10.7213889 28.5124902,10.5588889 27.6955882,10.5588889 C26.8779608,10.5588889 26.1901961,10.7213889 25.6293922,11.0471111 C25.0693137,11.3721111 24.6187843,11.8011111 24.2814314,12.337 C23.9426275,12.8714444 23.6974118,13.481 23.5457843,14.1656667 C23.3934314,14.8510556 23.3179804,15.5653333 23.3179804,16.3092222 C23.3179804,17.0076111 23.3992353,17.7052778 23.5631961,18.4007778 C23.7264314,19.0977222 23.9890588,19.721 24.3510784,20.2655556 C24.7123725,20.8122778 25.1679804,21.2535556 25.716451,21.5901111 C26.2641961,21.9273889 26.9243922,22.0956667 27.6948627,22.0956667 C28.5117647,22.0956667 29.194451,21.9324444 29.7429216,21.6067222 C30.2906667,21.2817222 30.7281373,20.8462222 31.0560588,20.3002222 C31.3825294,19.7535 31.6161373,19.1316667 31.7561569,18.4354444 C31.895451,17.7377778 31.9658235,17.0184444 31.9658235,16.2738333 C31.966549,15.5321111 31.896902,14.8178333 31.7576078,14.1317222 L31.7576078,14.1317222 L31.7576078,14.1317222 Z" id="Shape"></path>
                        <path d="M43.7318235,0.450666667 L43.7318235,9.51238889 L43.8021961,9.51238889 C44.4087059,8.58361111 45.2314118,7.904 46.2710392,7.47427778 C47.3092157,7.04383333 48.3887451,6.82933333 49.5096275,6.82933333 C50.4193922,6.82933333 51.3182745,7.01422222 52.205549,7.38616667 C53.0928235,7.75811111 53.8915882,8.32722222 54.6040196,9.0935 C55.3157255,9.86122222 55.8932157,10.8427222 56.3372157,12.0401667 C56.7804902,13.2368889 57.0024902,14.6603889 57.0024902,16.3092222 C57.0024902,17.9595 56.7804902,19.383 56.3372157,20.5797222 C55.8932157,21.7757222 55.3157255,22.7579444 54.6040196,23.5249444 C53.8915882,24.2919444 53.0928235,24.8617778 52.205549,25.233 C51.317549,25.6035 50.4193922,25.7905556 49.5096275,25.7905556 C48.1790784,25.7905556 46.988549,25.5818333 45.9380392,25.1629444 C44.8882549,24.7440556 44.0938431,24.0355556 43.5569804,23.036 L43.4873333,23.036 L43.4873333,25.337 L38.7600392,25.337 L38.7600392,0.450666667 L43.7318235,0.450666667 L43.7318235,0.450666667 L43.7318235,0.450666667 Z M51.7847647,14.1490556 C51.6215294,13.4513889 51.3647059,12.8367778 51.0142941,12.3008889 C50.6646078,11.7671667 50.2264118,11.3432222 49.7011569,11.0290556 C49.175902,10.7148889 48.5396471,10.5588889 47.7931176,10.5588889 C47.0690784,10.5588889 46.4393529,10.7156111 45.9024902,11.0290556 C45.3656275,11.3432222 44.9216275,11.7664444 44.5719412,12.3008889 C44.2215294,12.8360556 43.9647059,13.4513889 43.8014706,14.1490556 C43.6375098,14.8467222 43.5562549,15.5783333 43.5562549,16.3446111 C43.5562549,17.0892222 43.6375098,17.8078333 43.8014706,18.5062222 C43.9647059,19.2024444 44.2215294,19.8185 44.5719412,20.3543889 C44.9216275,20.8881111 45.3656275,21.3113333 45.9024902,21.6262222 C46.4393529,21.9403889 47.0690784,22.0963889 47.7931176,22.0963889 C48.5396471,22.0963889 49.175902,21.9396667 49.7011569,21.6262222 C50.2264118,21.3113333 50.6646078,20.8888333 51.0142941,20.3543889 C51.3647059,19.8192222 51.6215294,19.2024444 51.7847647,18.5062222 C51.948,17.8078333 52.0299804,17.0892222 52.0299804,16.3446111 C52.0299804,15.5776111 51.948,14.8467222 51.7847647,14.1490556 L51.7847647,14.1490556 L51.7847647,14.1490556 Z" id="Shape"></path>
                        <path d="M58.5427059,4.52833333 L58.5427059,0.450666667 L63.5152157,0.450666667 L63.5152157,4.52833333 L58.5427059,4.52833333 L58.5427059,4.52833333 L58.5427059,4.52833333 Z M63.5144902,7.31683333 L63.5144902,25.337 L58.5419804,25.337 L58.5419804,7.31683333 L63.5144902,7.31683333 L63.5144902,7.31683333 L63.5144902,7.31683333 Z" id="Shape"></path>
                        <path d="M75.629451,7.31683333 L75.629451,10.6282222 L71.9874902,10.6282222 L71.9874902,19.5505556 C71.9874902,20.3861667 72.1275098,20.9451667 72.407549,21.2239444 C72.6897647,21.5027222 73.2491176,21.6421111 74.0892353,21.6421111 C74.368549,21.6421111 74.6362549,21.6298333 74.8938039,21.606 C75.1506275,21.5843333 75.3951176,21.5482222 75.629451,21.502 L75.629451,25.3355556 C75.2086667,25.4063333 74.7421765,25.4518333 74.2292549,25.4742222 C73.7148824,25.4987778 73.2135686,25.5110556 72.7231373,25.5110556 C71.9526667,25.5110556 71.2228235,25.4583333 70.5350588,25.3528889 C69.8465686,25.2481667 69.2393333,25.0459444 68.7148039,24.7426111 C68.1888235,24.4407222 67.7745686,24.011 67.4705882,23.4534444 C67.1666078,22.8951667 67.0149804,22.1635556 67.0149804,21.2578889 L67.0149804,10.6267778 L64.0041961,10.6267778 L64.0041961,7.31538889 L67.0149804,7.31538889 L67.0149804,1.91388889 L71.9874902,1.91388889 L71.9874902,7.31683333 L75.629451,7.31683333 L75.629451,7.31683333 L75.629451,7.31683333 Z" id="Shape"></path>
                        <path d="M81.5806471,21.0159444 C82.3271765,21.7367222 83.4016275,22.0963889 84.801098,22.0963889 C85.805902,22.0963889 86.6685098,21.8457778 87.392549,21.3467222 C88.1165882,20.8476667 88.5598627,20.3182778 88.723098,19.7614444 L93.0999804,19.7614444 C92.3998824,21.9230556 91.3261569,23.4678889 89.8795294,24.3966667 C88.431451,25.3261667 86.6815686,25.792 84.6269804,25.792 C83.2028431,25.792 81.919451,25.5652222 80.7753529,25.1116667 C79.6319804,24.6595556 78.6627255,24.0138889 77.8690392,23.1768333 C77.0753529,22.3412222 76.4623137,21.3409444 76.0313725,20.1796111 C75.5989804,19.0175556 75.3820588,17.7399444 75.3820588,16.3453333 C75.3820588,14.9991111 75.6047843,13.7424444 76.0480588,12.5803889 C76.4898824,11.4190556 77.1217843,10.4137222 77.9379608,9.56583333 C78.7555882,8.71794444 79.7306471,8.04988889 80.8624118,7.56166667 C81.9941765,7.07344444 83.248549,6.83005556 84.6262549,6.83005556 C86.1664706,6.83005556 87.5086275,7.12616667 88.653451,7.71766667 C89.7968235,8.30916667 90.7363333,9.10577778 91.4719804,10.1053333 C92.2076275,11.1048889 92.7372353,12.2431111 93.0644314,13.5207222 C93.3916275,14.7997778 93.5077059,16.1366111 93.4141176,17.5297778 L80.3552941,17.5297778 C80.4242157,19.1323889 80.8341176,20.2951667 81.5806471,21.0159444 L81.5806471,21.0159444 L81.5806471,21.0159444 Z M87.2002941,11.5346111 C86.6053922,10.8838889 85.7014314,10.5588889 84.4869608,10.5588889 C83.6932745,10.5588889 83.0345294,10.6925 82.508549,10.9597222 C81.9825686,11.2269444 81.5632353,11.5577222 81.249098,11.9520556 C80.9327843,12.3485556 80.7122353,12.7667222 80.583098,13.208 C80.4539608,13.6478333 80.3792353,14.0436111 80.3552941,14.3917222 L88.4430588,14.3917222 C88.209451,13.1379444 87.7959216,12.1853333 87.2002941,11.5346111 L87.2002941,11.5346111 L87.2002941,11.5346111 Z" id="Shape"></path>
                        <path d="M110.494333,19.7087222 C110.495784,19.6552778 110.503039,19.6054444 110.503039,19.5512778 C110.503039,18.7156667 110.339804,18.0122222 110.012608,17.4423889 C109.685412,16.8732778 109.254471,16.3973333 108.717608,16.0131111 C108.180745,15.6303333 107.56698,15.3226667 106.879941,15.0893889 C106.19,14.8582778 105.484098,14.6596667 104.760059,14.4971667 C104.059961,14.3339444 103.371471,14.183 102.695314,14.0436111 C102.017706,13.9049444 101.417,13.7467778 100.891745,13.5741667 C100.365765,13.3993889 99.9406275,13.1718889 99.6134314,12.8945556 C99.2862353,12.6150556 99.123,12.2553889 99.123,11.8126667 C99.123,11.4421667 99.2165882,11.1467778 99.4037647,10.9250556 C99.5909412,10.7040556 99.8172941,10.5350556 100.086451,10.4195 C100.354157,10.3032222 100.651608,10.2273889 100.978804,10.1934444 C101.304549,10.1573333 101.609255,10.1407222 101.888569,10.1407222 C102.775843,10.1407222 103.546314,10.309 104.19998,10.6462778 C104.853647,10.9835556 105.215667,11.6277778 105.285314,12.5803889 L110.012608,12.5803889 C109.91902,11.466 109.633176,10.5415556 109.155078,9.80922222 C108.676255,9.07761111 108.074098,8.49044444 107.35151,8.04988889 C106.627471,7.60716667 105.804039,7.29444444 104.883392,7.10811111 C103.961294,6.92177778 103.010176,6.83005556 102.029314,6.83005556 C101.048451,6.83005556 100.092255,6.91672222 99.158549,7.09005556 C98.2233922,7.26555556 97.3847255,7.56744444 96.6374706,7.99716667 C95.8894902,8.42761111 95.2887843,9.01405556 94.833902,9.75722222 C94.3790196,10.5018333 94.1512157,11.4544444 94.1512157,12.6157778 C94.1512157,13.4058889 94.314451,14.0753889 94.6416471,14.6199444 C94.9688431,15.1659444 95.3997843,15.6195 95.9366471,15.9791667 C96.4735098,16.3402778 97.0872745,16.6298889 97.7757647,16.8516111 C98.4642549,17.0733333 99.1701569,17.2625556 99.8941961,17.4265 C101.66802,17.797 103.051529,18.1696667 104.043275,18.5408889 C105.03502,18.9135556 105.531255,19.4718333 105.531255,20.215 C105.531255,20.6548333 105.426059,21.0217222 105.216392,21.3120556 C105.006725,21.6031111 104.743373,21.8356667 104.42851,22.0104444 C104.112196,22.1830556 103.76251,22.3123333 103.377275,22.3925 C102.99349,22.4741111 102.624941,22.5152778 102.274529,22.5152778 C101.784098,22.5152778 101.311078,22.4575 100.856196,22.3412222 C100.401314,22.2242222 99.9986667,22.0436667 99.6489804,21.801 C99.2992941,21.5568889 99.0127255,21.2427222 98.79,20.8599444 C98.5687255,20.4764444 98.458451,20.0178333 98.458451,19.4826667 L93.7311569,19.4826667 C93.7761373,20.6916667 94.051098,21.6962778 94.5531373,22.4972222 C95.054451,23.2996111 95.6965098,23.9445556 96.4785882,24.4335 C97.2606667,24.921 98.1537451,25.2683889 99.1578235,25.4771111 C100.161176,25.6865556 101.188471,25.7927222 102.238255,25.7927222 C103.265549,25.7927222 104.276157,25.6930556 105.267902,25.4958889 C105.840314,25.3817778 106.366294,25.2048333 106.866157,24.9932222 C107.009804,22.7478333 108.221373,20.5898333 110.494333,19.7087222 L110.494333,19.7087222 L110.494333,19.7087222 Z" id="Shape"></path>
                    </g>
                </g>
            </g>
        </g>
    </g>
</svg>