<?xml version="1.0" encoding="utf-8"?>
<!-- Generator: Adobe Illustrator 16.0.0, SVG Export Plug-In . SVG Version: 6.00 Build 0)  -->
<!DOCTYPE svg PUBLIC "-//W3C//DTD SVG 1.1//EN" "http://www.w3.org/Graphics/SVG/1.1/DTD/svg11.dtd">
<svg version="1.1" id="Ebene_1" xmlns="http://www.w3.org/2000/svg" xmlns:xlink="http://www.w3.org/1999/xlink" x="0px" y="0px"
	 width="240px" height="49.346px" viewBox="0 0 240 49.346" enable-background="new 0 0 240 49.346" xml:space="preserve">
<g>
	<path fill="#FFFFFF" d="M20,34.786V24.2c0-1.232-0.602-2.223-1.153-2.971c-0.551-0.748-1.422-1.331-2.289-1.751
		c-0.865-0.419-1.905-0.702-2.954-0.846c-1.049-0.144-2.126-0.216-3.15-0.216c-1.128,0-2.27,0.112-3.385,0.334
		c-1.115,0.223-2.129,0.597-3.021,1.122c-0.893,0.525-1.632,1.281-2.208,2.147c-0.578,0.865-0.911,1.327-0.989,3.327H6.44
		c0.104-1,0.472-1.95,1.102-2.423c0.629-0.472,1.496-0.739,2.597-0.739c0.498,0,0.964,0.018,1.397,0.084
		c0.433,0.065,0.813,0.188,1.141,0.385c0.328,0.197,0.591,0.469,0.787,0.823c0.197,0.354,0.295,0.831,0.295,1.435
		c0.026,0.577-0.145,1.016-0.511,1.316c-0.368,0.303-0.866,0.531-1.496,0.689c-0.629,0.157-1.351,0.274-2.164,0.354
		c-0.813,0.078-1.64,0.184-2.479,0.314s-1.672,0.309-2.499,0.531c-0.827,0.223-1.561,0.557-2.204,1.004
		c-0.643,0.445-1.167,1.043-1.574,1.791c-0.407,0.747-0.61,1.698-0.61,2.852c0,1.05,0.177,1.955,0.531,2.715
		c0.354,0.763,0.846,1.392,1.476,1.89c0.629,0.498,1.364,0.866,2.204,1.102c0.839,0.237,1.745,0.354,2.715,0.354
		c1.259,0,2.492-0.185,3.699-0.551c1.206-0.367,2.256-1.009,3.148-1.929c0.026,0.342,0.072,0.694,0.138,1.022s0.151,0.98,0.256,0.98
		h5.667c-0.262,0-0.12-1.066-0.224-1.906C19.726,36.6,20,35.704,20,34.786z M14,31.441c0,0.314-0.154,0.734-0.219,1.259
		c-0.065,0.525-0.303,1.043-0.592,1.556c-0.289,0.511-0.765,0.95-1.368,1.317c-0.604,0.368-1.471,0.551-2.573,0.551
		c-0.446,0-0.887-0.039-1.306-0.118c-0.42-0.079-0.791-0.217-1.105-0.413c-0.315-0.196-0.567-0.465-0.75-0.807
		c-0.184-0.34-0.276-0.761-0.276-1.26c0-0.523,0.091-0.957,0.275-1.298c0.183-0.342,0.426-0.623,0.728-0.846
		c0.301-0.223,0.655-0.4,1.062-0.532c0.406-0.131,0.819-0.235,1.239-0.314c0.446-0.078,0.892-0.144,1.338-0.196
		c0.445-0.052,0.872-0.118,1.279-0.197c0.406-0.079,0.908-0.177,1.262-0.296C13.349,29.729,13,29.565,14,29.355V31.441z"/>
	<path fill="#FFFFFF" d="M36,21.346h-0.126c-0.629-1-1.489-1.702-2.577-2.213c-1.089-0.512-2.237-0.742-3.444-0.742
		c-1.495,0-2.807,0.307-3.935,0.897c-1.129,0.59-2.066,1.377-2.814,2.348c-0.748,0.971-1.312,2.096-1.692,3.367
		c-0.381,1.272-0.571,2.593-0.571,3.956c0,1.418,0.19,2.781,0.571,4.093c0.38,1.312,0.944,2.475,1.692,3.484
		c0.748,1.011,1.698,1.811,2.853,2.399c1.154,0.591,2.492,0.887,4.014,0.887c1.338,0,2.539-0.426,3.601-0.911
		c1.062-0.485,1.921-1.565,2.577-2.565H36v3h6v-28h-6V21.346z M35.914,31.52c-0.157,0.786-0.42,1.489-0.787,2.104
		c-0.368,0.617-0.859,1.109-1.476,1.476c-0.617,0.368-1.384,0.551-2.302,0.551c-0.866,0-1.607-0.189-2.223-0.569
		c-0.617-0.381-1.128-0.88-1.535-1.496c-0.407-0.616-0.702-1.317-0.886-2.105c-0.184-0.787-0.275-1.574-0.275-2.36
		c0-0.84,0.085-1.646,0.256-2.42c0.17-0.774,0.446-1.463,0.826-2.066s0.886-1.088,1.515-1.457c0.63-0.367,1.403-0.551,2.322-0.551
		c0.918,0,1.679,0.184,2.283,0.551c0.603,0.369,1.095,0.847,1.476,1.438c0.38,0.59,0.649,1.272,0.807,2.046
		c0.157,0.774,0.236,1.581,0.236,2.42C36.149,29.919,36.071,30.733,35.914,31.52z"/>
	<path fill="#FFFFFF" d="M61.59,20.973c-0.801-0.865-1.699-1.508-2.696-1.928c-0.997-0.419-2.007-0.629-3.03-0.629
		c-1.259,0-2.473,0.193-3.64,0.678c-1.167,0.486-2.092,1.252-2.774,2.252H49v-10h-6v28h6v-3h0.175c0.604,1,1.496,2.111,2.676,2.584
		c1.18,0.473,2.518,0.8,4.014,0.8c1.023,0,2.033-0.163,3.03-0.583s1.895-1.04,2.696-1.905c0.8-0.866,1.449-1.962,1.948-3.313
		c0.498-1.351,0.748-2.951,0.748-4.814s-0.25-3.467-0.748-4.818C63.04,22.944,62.39,21.838,61.59,20.973z M58.423,31.598
		c-0.184,0.786-0.473,1.483-0.866,2.086c-0.393,0.604-0.885,1.082-1.476,1.437c-0.59,0.354-1.306,0.53-2.145,0.53
		c-0.813,0-1.522-0.177-2.125-0.53c-0.604-0.354-1.102-0.833-1.495-1.437c-0.394-0.603-0.682-1.3-0.866-2.086
		c-0.184-0.787-0.275-1.6-0.275-2.439c0-0.865,0.092-1.692,0.275-2.479s0.472-1.481,0.866-2.085s0.892-1.082,1.495-1.438
		c0.604-0.354,1.312-0.531,2.125-0.531c0.839,0,1.554,0.178,2.145,0.531c0.59,0.355,1.083,0.834,1.476,1.438
		c0.394,0.604,0.682,1.298,0.866,2.085c0.183,0.787,0.275,1.614,0.275,2.479C58.698,29.999,58.605,30.811,58.423,31.598z"/>
	<rect x="66" y="18.346" fill="#FFFFFF" width="5" height="21"/>
	<rect x="66" y="11.346" fill="#FFFFFF" width="5" height="4"/>
	<path fill="#FFFFFF" d="M83.489,35.14c-0.944,0-1.639-0.157-1.954-0.472C81.222,34.353,81,33.723,81,32.779V22.346h4v-4h-4v-5h-6v5
		h-3v4h3v12.36c0,1.023,0.44,1.851,0.781,2.48c0.341,0.629,0.942,1.114,1.532,1.455c0.59,0.341,1.34,0.57,2.114,0.688
		c0.773,0.119,1.627,0.178,2.493,0.178c0.551,0,1.021-0.015,1.599-0.04C84.097,39.443,84,39.39,85,39.312v-4.329
		c0,0.053-0.428,0.092-0.716,0.117C83.995,35.127,83.804,35.14,83.489,35.14z"/>
	<path fill="#FFFFFF" d="M103.027,22.114c-0.826-1.127-1.883-2.026-3.168-2.695c-1.286-0.669-2.794-1.003-4.525-1.003
		c-1.549,0-2.958,0.275-4.23,0.826c-1.273,0.551-2.369,1.306-3.286,2.263c-0.919,0.959-1.627,2.092-2.125,3.404
		c-0.499,1.312-0.748,2.729-0.748,4.25c0,1.574,0.243,3.017,0.729,4.328c0.485,1.312,1.174,2.439,2.065,3.385
		c0.892,0.944,1.981,1.673,3.267,2.184c1.285,0.511,2.728,0.768,4.329,0.768c2.308,0,4.275-0.857,5.902-1.908
		c1.627-1.049,2.833-2.568,3.621-5.568h-4.919c-0.184,1-0.682,1.562-1.495,2.125c-0.814,0.564-1.785,1.013-2.913,1.013
		c-1.574,0-2.78-0.398-3.62-1.212c-0.84-0.812-1.299-1.926-1.377-3.926h14.679c0.104-2-0.026-3.008-0.394-4.45
		C104.45,24.453,103.853,23.243,103.027,22.114z M90.532,27.346c0.026,0,0.111-1.035,0.256-1.534
		c0.144-0.498,0.394-1.067,0.748-1.515c0.354-0.445,0.827-0.868,1.417-1.17c0.59-0.301,1.332-0.477,2.223-0.477
		c1.364,0,2.381,0.551,3.05,1.285c0.669,0.734,1.134,1.41,1.397,3.41H90.532z"/>
	<path fill="#FFFFFF" d="M123.251,32.84c0.371-0.234,0.75-0.44,1.134-0.63c-0.061-0.697-0.231-1.304-0.522-1.813
		c-0.367-0.642-0.853-1.18-1.456-1.611c-0.604-0.435-1.292-0.781-2.065-1.044c-0.774-0.263-1.567-0.485-2.381-0.669
		c-0.787-0.184-1.562-0.354-2.322-0.512c-0.761-0.157-1.437-0.334-2.026-0.531c-0.59-0.196-1.07-0.452-1.437-0.768
		c-0.367-0.314-0.551-0.721-0.551-1.22c0-0.419,0.104-0.753,0.315-1.003c0.209-0.25,0.465-0.439,0.767-0.57s0.637-0.217,1.004-0.256
		c0.367-0.039,0.709-0.06,1.023-0.06c0.997,0,1.862,0.409,2.597,0.789c0.734,0.381,1.141,0.403,1.22,2.403h5.312
		c-0.104-2-0.427-2.521-0.964-3.348c-0.538-0.826-1.213-1.598-2.026-2.097c-0.813-0.498-1.738-0.907-2.774-1.117
		c-1.037-0.209-2.105-0.342-3.208-0.342c-1.102,0-2.178,0.084-3.226,0.281c-1.05,0.197-1.995,0.532-2.833,1.017
		c-0.84,0.486-1.515,1.144-2.026,1.983c-0.512,0.84-0.768,1.915-0.768,3.226c0,0.893,0.184,1.646,0.551,2.262
		c0.368,0.617,0.853,1.127,1.457,1.533c0.603,0.407,1.292,0.735,2.065,0.984c0.774,0.25,1.568,0.466,2.381,0.649
		c1.993,0.419,3.548,0.84,4.664,1.26c1.114,0.42,1.672,1.049,1.672,1.888c0,0.499-0.119,0.912-0.354,1.24
		c-0.236,0.328-0.531,0.591-0.886,0.787c-0.354,0.196-0.748,0.342-1.18,0.433c-0.433,0.093-0.846,0.138-1.24,0.138
		c-0.551,0-1.082-0.064-1.593-0.197c-0.511-0.13-0.964-0.334-1.357-0.609c-0.393-0.275-0.715-0.807-0.964-1.238
		c-0.25-0.434-0.374-0.732-0.374-1.732h-5.313c0.053,2,0.36,2.676,0.925,3.582c0.564,0.904,1.286,1.721,2.165,2.271
		c0.878,0.551,1.882,0.989,3.011,1.225c1.127,0.237,2.282,0.376,3.462,0.376c1.044,0,2.069-0.094,3.081-0.276
		C118.94,36.897,120.671,34.473,123.251,32.84z"/>
</g>
</svg>
