<?xml version="1.0" encoding="utf-8"?>
<!-- Generator: Adobe Illustrator 16.0.0, SVG Export Plug-In . SVG Version: 6.00 Build 0)  -->
<!DOCTYPE svg PUBLIC "-//W3C//DTD SVG 1.1//EN" "http://www.w3.org/Graphics/SVG/1.1/DTD/svg11.dtd">
<svg version="1.1" id="Ebene_1" xmlns:sketch="http://www.bohemiancoding.com/sketch/ns"
	 xmlns="http://www.w3.org/2000/svg" xmlns:xlink="http://www.w3.org/1999/xlink" x="0px" y="0px" width="111px" height="26px"
	 viewBox="0 0 111 26" enable-background="new 0 0 111 26" xml:space="preserve">
<title>adbites_logo</title>
<desc>Created with Sketch.</desc>
<g id="Page-1_1_" sketch:type="MSPage">
	<g id="adbites_logo" sketch:type="MSLayerGroup">
		<g id="Page-1" sketch:type="MSShapeGroup">
			<g id="adbites_white">
				<g id="Group">
					<path id="Shape" fill="#B8B8B8" d="M0.56,12.859c0.07-1.162,0.362-2.127,0.875-2.894C1.949,9.2,2.603,8.583,3.397,8.119
						C4.19,7.655,5.083,7.323,6.075,7.125c0.993-0.197,1.99-0.296,2.994-0.296c0.91,0,1.832,0.062,2.766,0.19
						c0.933,0.128,1.785,0.379,2.556,0.751s1.401,0.888,1.891,1.55c0.491,0.663,0.736,1.54,0.736,2.631v9.378
						c0,0.812,0.046,1.592,0.14,2.334c0.093,0.744,0.257,1.302,0.49,1.672h-5.042c-0.094-0.277-0.17-0.562-0.228-0.854
						c-0.059-0.289-0.1-0.586-0.123-0.889c-0.794,0.814-1.728,1.384-2.801,1.709c-1.074,0.324-2.171,0.488-3.292,0.488
						c-0.864,0-1.669-0.105-2.416-0.316c-0.748-0.209-1.401-0.533-1.962-0.975c-0.559-0.441-0.998-1-1.313-1.674
						C0.157,22.153,0,21.352,0,20.422c0-1.021,0.181-1.863,0.543-2.527c0.361-0.662,0.828-1.189,1.4-1.586
						c0.572-0.394,1.226-0.689,1.962-0.887c0.735-0.197,1.476-0.354,2.223-0.471c0.746-0.116,1.482-0.21,2.206-0.279
						c0.723-0.07,1.365-0.174,1.925-0.313s1.003-0.343,1.331-0.612c0.327-0.265,0.478-0.654,0.455-1.167
						c0-0.533-0.088-0.958-0.262-1.272c-0.175-0.313-0.409-0.557-0.7-0.731c-0.292-0.175-0.631-0.291-1.016-0.349
						c-0.385-0.058-0.799-0.086-1.243-0.086c-0.98,0-1.75,0.209-2.311,0.628c-0.56,0.417-0.887,1.114-0.981,2.091H0.56L0.56,12.859
						L0.56,12.859z M12.044,16.519c-0.209,0.187-0.472,0.333-0.788,0.436c-0.315,0.105-0.653,0.192-1.015,0.263
						c-0.362,0.068-0.741,0.127-1.138,0.173c-0.397,0.048-0.793,0.105-1.19,0.175c-0.375,0.07-0.741,0.162-1.104,0.279
						c-0.362,0.115-0.677,0.272-0.946,0.47c-0.269,0.197-0.485,0.446-0.647,0.751c-0.164,0.301-0.245,0.685-0.245,1.15
						c0,0.439,0.082,0.812,0.245,1.115c0.163,0.301,0.385,0.539,0.665,0.712c0.28,0.176,0.607,0.298,0.981,0.366
						c0.374,0.072,0.758,0.105,1.156,0.105c0.98,0,1.738-0.162,2.276-0.488c0.536-0.324,0.934-0.715,1.19-1.167
						c0.257-0.454,0.415-0.912,0.473-1.377c0.059-0.466,0.087-0.836,0.087-1.115V16.519L12.044,16.519L12.044,16.519z"/>
					<path id="Shape_1_" fill="#B8B8B8" d="M31.967,23.036c-0.583,0.978-1.348,1.679-2.293,2.11
						c-0.945,0.428-2.013,0.645-3.204,0.645c-1.354,0-2.545-0.262-3.572-0.784c-1.028-0.524-1.874-1.231-2.539-2.126
						c-0.665-0.895-1.168-1.923-1.505-3.085c-0.339-1.161-0.508-2.369-0.508-3.626c0-1.207,0.169-2.375,0.508-3.503
						c0.337-1.126,0.84-2.121,1.505-2.98c0.665-0.858,1.499-1.55,2.504-2.074c1.002-0.523,2.17-0.783,3.501-0.783
						c1.073,0,2.095,0.226,3.064,0.678c0.968,0.454,1.734,1.121,2.294,2.004h0.07V0.451h4.972v24.886h-4.727v-2.301H31.967
						L31.967,23.036L31.967,23.036z M31.758,14.132c-0.14-0.686-0.38-1.29-0.718-1.813c-0.339-0.524-0.776-0.947-1.313-1.271
						c-0.538-0.326-1.213-0.488-2.03-0.488c-0.818,0-1.505,0.162-2.066,0.488c-0.56,0.325-1.011,0.754-1.348,1.29
						c-0.339,0.535-0.584,1.144-0.735,1.829c-0.152,0.686-0.228,1.399-0.228,2.143c0,0.699,0.082,1.396,0.245,2.092
						c0.164,0.697,0.426,1.32,0.788,1.865c0.361,0.547,0.817,0.988,1.365,1.324c0.548,0.338,1.208,0.506,1.979,0.506
						c0.817,0,1.5-0.163,2.048-0.488c0.547-0.326,0.985-0.762,1.313-1.307c0.326-0.547,0.56-1.169,0.7-1.865
						c0.139-0.697,0.209-1.417,0.209-2.162C31.967,15.532,31.897,14.818,31.758,14.132L31.758,14.132L31.758,14.132z"/>
					<path id="Shape_2_" fill="#B8B8B8" d="M43.732,0.451v9.062h0.07c0.606-0.929,1.429-1.608,2.469-2.038
						c1.038-0.43,2.118-0.645,3.239-0.645c0.91,0,1.809,0.185,2.696,0.557s1.686,0.941,2.398,1.708
						c0.712,0.768,1.289,1.749,1.734,2.946c0.442,1.197,0.664,2.62,0.664,4.269c0,1.65-0.222,3.074-0.664,4.271
						c-0.445,1.195-1.022,2.178-1.734,2.945c-0.712,0.767-1.511,1.336-2.398,1.707c-0.888,0.371-1.786,0.559-2.696,0.559
						c-1.331,0-2.521-0.209-3.572-0.628c-1.05-0.419-1.844-1.128-2.381-2.127h-0.07v2.301H38.76V0.451H43.732L43.732,0.451
						L43.732,0.451z M51.785,14.148c-0.163-0.697-0.42-1.312-0.771-1.848c-0.35-0.534-0.788-0.958-1.313-1.271
						c-0.525-0.314-1.162-0.47-1.908-0.47c-0.724,0-1.354,0.157-1.891,0.47c-0.537,0.314-0.98,0.737-1.331,1.271
						c-0.35,0.535-0.607,1.15-0.771,1.848c-0.164,0.698-0.245,1.43-0.245,2.196c0,0.745,0.082,1.463,0.245,2.161
						c0.164,0.697,0.42,1.312,0.771,1.849c0.35,0.534,0.794,0.957,1.331,1.271c0.537,0.314,1.167,0.47,1.891,0.47
						c0.747,0,1.383-0.156,1.908-0.47c0.525-0.314,0.963-0.737,1.313-1.271c0.351-0.535,0.607-1.151,0.771-1.849
						c0.164-0.698,0.245-1.416,0.245-2.161C52.03,15.578,51.948,14.847,51.785,14.148L51.785,14.148L51.785,14.148z"/>
					<path id="Shape_3_" fill="#B8B8B8" d="M58.543,4.528V0.451h4.973v4.078H58.543L58.543,4.528L58.543,4.528z M63.515,7.317v18.02
						h-4.973V7.317H63.515L63.515,7.317L63.515,7.317z"/>
					<path id="Shape_4_" fill="#B8B8B8" d="M75.629,7.317v3.312h-3.642v8.922c0,0.836,0.14,1.395,0.421,1.674
						c0.281,0.278,0.841,0.418,1.682,0.418c0.279,0,0.547-0.013,0.805-0.037c0.256-0.021,0.5-0.057,0.734-0.104v3.834
						c-0.42,0.07-0.887,0.115-1.399,0.139c-0.515,0.024-1.017,0.037-1.507,0.037c-0.77,0-1.5-0.053-2.188-0.158
						c-0.688-0.105-1.296-0.308-1.82-0.611c-0.525-0.301-0.94-0.731-1.244-1.289c-0.305-0.559-0.455-1.289-0.455-2.195V10.627
						h-3.012V7.315h3.012V1.914h4.972v5.403H75.629L75.629,7.317L75.629,7.317z"/>
					<path id="Shape_5_" fill="#B8B8B8" d="M81.58,21.016c0.747,0.721,1.822,1.08,3.221,1.08c1.005,0,1.867-0.25,2.592-0.749
						s1.168-1.028,1.33-1.585H93.1c-0.699,2.161-1.773,3.706-3.221,4.635c-1.447,0.93-3.197,1.396-5.252,1.396
						c-1.424,0-2.707-0.227-3.852-0.681c-1.144-0.451-2.113-1.098-2.906-1.935c-0.794-0.835-1.406-1.836-1.838-2.997
						c-0.432-1.162-0.649-2.439-0.649-3.834c0-1.347,0.224-2.604,0.666-3.765s1.073-2.167,1.89-3.015
						c0.818-0.848,1.793-1.516,2.925-2.004s2.386-0.731,3.765-0.731c1.539,0,2.882,0.296,4.026,0.888
						c1.144,0.591,2.083,1.388,2.819,2.388c0.734,1,1.265,2.138,1.592,3.415c0.327,1.279,0.443,2.616,0.35,4.009H80.355
						C80.424,19.133,80.834,20.295,81.58,21.016L81.58,21.016L81.58,21.016z M87.2,11.535c-0.595-0.651-1.499-0.976-2.714-0.976
						c-0.793,0-1.451,0.133-1.978,0.401c-0.526,0.267-0.945,0.598-1.26,0.992c-0.316,0.396-0.536,0.814-0.666,1.256
						c-0.129,0.44-0.204,0.835-0.228,1.184h8.088C88.209,13.138,87.796,12.186,87.2,11.535L87.2,11.535L87.2,11.535z"/>
					<path id="Shape_6_" fill="#B8B8B8" d="M110.494,19.709c0.002-0.054,0.009-0.104,0.009-0.158c0-0.835-0.163-1.539-0.49-2.108
						s-0.759-1.045-1.295-1.429c-0.537-0.383-1.151-0.691-1.838-0.924c-0.69-0.231-1.396-0.43-2.12-0.593
						c-0.699-0.163-1.389-0.313-2.064-0.454c-0.678-0.139-1.278-0.297-1.804-0.469c-0.526-0.175-0.951-0.402-1.278-0.68
						c-0.327-0.279-0.49-0.639-0.49-1.082c0-0.37,0.094-0.666,0.281-0.888c0.187-0.221,0.413-0.39,0.682-0.505
						c0.268-0.116,0.565-0.192,0.893-0.226c0.326-0.036,0.631-0.053,0.91-0.053c0.887,0,1.658,0.168,2.312,0.506
						c0.653,0.337,1.016,0.981,1.085,1.934h4.728c-0.094-1.115-0.38-2.039-0.857-2.771c-0.479-0.731-1.081-1.319-1.804-1.759
						c-0.725-0.442-1.547-0.755-2.469-0.942c-0.922-0.186-1.873-0.278-2.854-0.278s-1.938,0.087-2.871,0.26
						c-0.935,0.176-1.773,0.478-2.521,0.907c-0.748,0.431-1.349,1.017-1.804,1.76c-0.455,0.745-0.683,1.697-0.683,2.858
						c0,0.79,0.163,1.459,0.49,2.004c0.327,0.546,0.759,0.999,1.295,1.358c0.537,0.361,1.151,0.651,1.839,0.873
						c0.689,0.222,1.395,0.411,2.119,0.575c1.773,0.37,3.157,0.743,4.148,1.114c0.992,0.373,1.488,0.931,1.488,1.674
						c0,0.439-0.105,0.807-0.314,1.098c-0.21,0.291-0.474,0.523-0.788,0.697c-0.316,0.174-0.666,0.303-1.052,0.383
						c-0.383,0.082-0.752,0.123-1.103,0.123c-0.49,0-0.964-0.059-1.419-0.174c-0.454-0.117-0.857-0.299-1.207-0.541
						c-0.35-0.244-0.636-0.559-0.858-0.941c-0.222-0.383-0.331-0.842-0.331-1.377H93.73c0.046,1.209,0.32,2.214,0.822,3.015
						c0.502,0.803,1.144,1.447,1.926,1.937c0.782,0.487,1.676,0.835,2.68,1.043c1.003,0.21,2.03,0.316,3.08,0.316
						c1.027,0,2.038-0.1,3.029-0.297c0.572-0.114,1.099-0.291,1.599-0.503C107.01,22.748,108.221,20.59,110.494,19.709
						L110.494,19.709L110.494,19.709z"/>
				</g>
			</g>
		</g>
	</g>
</g>
</svg>
