<?xml version="1.0" encoding="UTF-8" standalone="no"?>
<svg width="153px" height="36px" viewBox="0 0 153 36" version="1.1" xmlns="http://www.w3.org/2000/svg" xmlns:xlink="http://www.w3.org/1999/xlink" xmlns:sketch="http://www.bohemiancoding.com/sketch/ns">
    <!-- Generator: Sketch 3.4.2 (15855) - http://www.bohemiancoding.com/sketch -->
    <title>Group</title>
    <desc>Created with Sketch.</desc>
    <defs></defs>
    <g id="Page-1" stroke="none" stroke-width="1" fill="none" fill-rule="evenodd" sketch:type="MSPage">
        <g id="adbites_white" sketch:type="MSLayerGroup" transform="translate(-49.000000, -3.000000)" fill="#FFFFFF">
            <g id="Group" transform="translate(49.000000, 3.000000)" sketch:type="MSShapeGroup">
                <path d="M0.772,17.805 C0.869,16.196 1.271,14.86 1.979,13.799 C2.686,12.738 3.587,11.885 4.682,11.242 C5.775,10.599 7.006,10.139 8.374,9.866 C9.742,9.593 11.117,9.456 12.5,9.456 C13.755,9.456 15.025,9.542 16.313,9.719 C17.599,9.897 18.774,10.244 19.836,10.759 C20.898,11.274 21.767,11.988 22.442,12.906 C23.118,13.824 23.456,15.038 23.456,16.549 L23.456,29.533 C23.456,30.659 23.52,31.737 23.649,32.766 C23.777,33.795 24.003,34.568 24.325,35.081 L17.375,35.081 C17.246,34.696 17.141,34.301 17.061,33.898 C16.98,33.498 16.923,33.088 16.892,32.669 C15.797,33.795 14.511,34.584 13.031,35.034 C11.551,35.483 10.039,35.71 8.494,35.71 C7.303,35.71 6.193,35.564 5.164,35.273 C4.134,34.984 3.233,34.534 2.46,33.924 C1.689,33.311 1.085,32.539 0.65,31.606 C0.217,30.674 0,29.564 0,28.277 C0,26.863 0.249,25.697 0.749,24.777 C1.247,23.861 1.89,23.13 2.679,22.582 C3.467,22.036 4.368,21.626 5.383,21.353 C6.396,21.081 7.417,20.864 8.447,20.701 C9.476,20.541 10.49,20.411 11.488,20.314 C12.485,20.217 13.37,20.074 14.142,19.881 C14.914,19.688 15.525,19.406 15.976,19.034 C16.426,18.666 16.635,18.128 16.603,17.418 C16.603,16.68 16.482,16.091 16.242,15.656 C16,15.223 15.678,14.885 15.277,14.643 C14.874,14.401 14.408,14.24 13.877,14.16 C13.346,14.08 12.775,14.04 12.164,14.04 C10.813,14.04 9.751,14.33 8.979,14.91 C8.207,15.488 7.756,16.453 7.627,17.805 L0.772,17.805 L0.772,17.805 Z M16.602,22.872 C16.313,23.13 15.951,23.332 15.516,23.475 C15.082,23.621 14.616,23.742 14.117,23.838 C13.618,23.934 13.096,24.015 12.549,24.078 C12.001,24.144 11.455,24.224 10.908,24.321 C10.392,24.418 9.886,24.545 9.387,24.706 C8.888,24.867 8.454,25.084 8.083,25.357 C7.713,25.63 7.415,25.976 7.191,26.396 C6.965,26.813 6.853,27.345 6.853,27.989 C6.853,28.598 6.965,29.115 7.191,29.533 C7.415,29.951 7.721,30.281 8.107,30.52 C8.493,30.763 8.944,30.932 9.459,31.027 C9.974,31.126 10.504,31.173 11.052,31.173 C12.403,31.173 13.448,30.948 14.189,30.497 C14.928,30.047 15.476,29.507 15.83,28.881 C16.184,28.253 16.401,27.618 16.481,26.974 C16.562,26.329 16.602,25.817 16.602,25.43 L16.602,22.872 L16.602,22.872 Z" id="Shape"></path>
                <path d="M44.062,31.896 C43.258,33.249 42.205,34.221 40.901,34.818 C39.599,35.411 38.126,35.711 36.485,35.711 C34.619,35.711 32.977,35.349 31.562,34.625 C30.145,33.899 28.979,32.92 28.063,31.681 C27.146,30.443 26.453,29.019 25.988,27.41 C25.521,25.802 25.287,24.129 25.287,22.389 C25.287,20.717 25.52,19.101 25.988,17.539 C26.453,15.979 27.146,14.603 28.063,13.413 C28.979,12.224 30.129,11.266 31.514,10.541 C32.896,9.816 34.506,9.457 36.34,9.457 C37.819,9.457 39.228,9.77 40.563,10.396 C41.898,11.024 42.953,11.948 43.725,13.171 L43.822,13.171 L43.822,0.624 L50.675,0.624 L50.675,35.082 L44.16,35.082 L44.16,31.896 L44.062,31.896 L44.062,31.896 Z M43.774,19.567 C43.581,18.617 43.251,17.781 42.784,17.056 C42.317,16.331 41.714,15.745 40.974,15.296 C40.233,14.845 39.301,14.62 38.175,14.62 C37.048,14.62 36.1,14.845 35.327,15.296 C34.555,15.746 33.934,16.34 33.469,17.082 C33.002,17.822 32.664,18.666 32.455,19.614 C32.245,20.563 32.141,21.552 32.141,22.582 C32.141,23.549 32.253,24.515 32.479,25.478 C32.704,26.443 33.066,27.306 33.565,28.06 C34.063,28.817 34.691,29.428 35.447,29.894 C36.202,30.361 37.112,30.594 38.174,30.594 C39.3,30.594 40.241,30.368 40.997,29.917 C41.752,29.467 42.355,28.864 42.807,28.108 C43.257,27.351 43.579,26.49 43.772,25.526 C43.964,24.56 44.061,23.564 44.061,22.533 C44.062,21.506 43.966,20.517 43.774,19.567 L43.774,19.567 Z" id="Shape"></path>
                <path d="M60.279,0.624 L60.279,13.171 L60.376,13.171 C61.212,11.885 62.346,10.944 63.779,10.349 C65.21,9.753 66.698,9.456 68.243,9.456 C69.497,9.456 70.736,9.712 71.959,10.227 C73.182,10.742 74.283,11.53 75.265,12.591 C76.246,13.654 77.042,15.013 77.654,16.671 C78.265,18.328 78.571,20.299 78.571,22.582 C78.571,24.867 78.265,26.838 77.654,28.495 C77.042,30.151 76.246,31.511 75.265,32.573 C74.283,33.635 73.182,34.424 71.959,34.938 C70.735,35.451 69.497,35.71 68.243,35.71 C66.409,35.71 64.768,35.421 63.32,34.841 C61.873,34.261 60.778,33.28 60.038,31.896 L59.942,31.896 L59.942,35.082 L53.426,35.082 L53.426,0.624 L60.279,0.624 L60.279,0.624 Z M71.379,19.591 C71.154,18.625 70.8,17.774 70.317,17.032 C69.835,16.293 69.231,15.706 68.507,15.271 C67.783,14.836 66.906,14.62 65.877,14.62 C64.879,14.62 64.011,14.837 63.271,15.271 C62.531,15.706 61.919,16.292 61.437,17.032 C60.954,17.773 60.6,18.625 60.375,19.591 C60.149,20.557 60.037,21.57 60.037,22.631 C60.037,23.662 60.149,24.657 60.375,25.624 C60.6,26.588 60.954,27.441 61.437,28.183 C61.919,28.922 62.531,29.508 63.271,29.944 C64.011,30.379 64.879,30.595 65.877,30.595 C66.906,30.595 67.783,30.378 68.507,29.944 C69.231,29.508 69.835,28.923 70.317,28.183 C70.8,27.442 71.154,26.588 71.379,25.624 C71.604,24.657 71.717,23.662 71.717,22.631 C71.717,21.569 71.604,20.557 71.379,19.591 L71.379,19.591 Z" id="Shape"></path>
                <path d="M80.694,6.27 L80.694,0.624 L87.548,0.624 L87.548,6.27 L80.694,6.27 L80.694,6.27 Z M87.547,10.131 L87.547,35.082 L80.693,35.082 L80.693,10.131 L87.547,10.131 L87.547,10.131 Z" id="Shape"></path>
                <path d="M104.246,10.131 L104.246,14.716 L99.226,14.716 L99.226,27.07 C99.226,28.227 99.419,29.001 99.805,29.387 C100.194,29.773 100.965,29.966 102.123,29.966 C102.508,29.966 102.877,29.949 103.232,29.916 C103.586,29.886 103.923,29.836 104.246,29.772 L104.246,35.08 C103.666,35.178 103.023,35.241 102.316,35.272 C101.607,35.306 100.916,35.323 100.24,35.323 C99.178,35.323 98.172,35.25 97.224,35.104 C96.275,34.959 95.438,34.679 94.715,34.259 C93.99,33.841 93.419,33.246 93,32.474 C92.581,31.701 92.372,30.688 92.372,29.434 L92.372,14.714 L88.222,14.714 L88.222,10.129 L92.372,10.129 L92.372,2.65 L99.226,2.65 L99.226,10.131 L104.246,10.131 L104.246,10.131 Z" id="Shape"></path>
                <path d="M112.449,29.099 C113.478,30.097 114.959,30.595 116.888,30.595 C118.273,30.595 119.462,30.248 120.46,29.557 C121.458,28.866 122.069,28.133 122.294,27.362 L128.327,27.362 C127.362,30.355 125.882,32.494 123.888,33.78 C121.892,35.067 119.48,35.712 116.648,35.712 C114.685,35.712 112.916,35.398 111.339,34.77 C109.763,34.144 108.427,33.25 107.333,32.091 C106.239,30.934 105.394,29.549 104.8,27.941 C104.204,26.332 103.905,24.563 103.905,22.632 C103.905,20.768 104.212,19.028 104.823,17.419 C105.432,15.811 106.303,14.419 107.428,13.245 C108.555,12.071 109.899,11.146 111.459,10.47 C113.019,9.794 114.748,9.457 116.647,9.457 C118.77,9.457 120.62,9.867 122.198,10.686 C123.774,11.505 125.069,12.608 126.083,13.992 C127.097,15.376 127.827,16.952 128.278,18.721 C128.729,20.492 128.889,22.343 128.76,24.272 L110.76,24.272 C110.855,26.491 111.42,28.101 112.449,29.099 L112.449,29.099 Z M120.195,15.971 C119.375,15.07 118.129,14.62 116.455,14.62 C115.361,14.62 114.453,14.805 113.728,15.175 C113.003,15.545 112.425,16.003 111.992,16.549 C111.556,17.098 111.252,17.677 111.074,18.288 C110.896,18.897 110.793,19.445 110.76,19.927 L121.908,19.927 C121.586,18.191 121.016,16.872 120.195,15.971 L120.195,15.971 Z" id="Shape"></path>
                <path d="M152.303,27.289 C152.305,27.215 152.315,27.146 152.315,27.071 C152.315,25.914 152.09,24.94 151.639,24.151 C151.188,23.363 150.594,22.704 149.854,22.172 C149.114,21.642 148.268,21.216 147.321,20.893 C146.37,20.573 145.397,20.298 144.399,20.073 C143.434,19.847 142.485,19.638 141.553,19.445 C140.619,19.253 139.791,19.034 139.067,18.795 C138.342,18.553 137.756,18.238 137.305,17.854 C136.854,17.467 136.629,16.969 136.629,16.356 C136.629,15.843 136.758,15.434 137.016,15.127 C137.274,14.821 137.586,14.587 137.957,14.427 C138.326,14.266 138.736,14.161 139.187,14.114 C139.636,14.064 140.056,14.041 140.441,14.041 C141.664,14.041 142.726,14.274 143.627,14.741 C144.528,15.208 145.027,16.1 145.123,17.419 L151.639,17.419 C151.51,15.876 151.116,14.596 150.457,13.582 C149.797,12.569 148.967,11.756 147.971,11.146 C146.973,10.533 145.838,10.1 144.569,9.842 C143.298,9.584 141.987,9.457 140.635,9.457 C139.283,9.457 137.965,9.577 136.678,9.817 C135.389,10.06 134.233,10.478 133.203,11.073 C132.172,11.669 131.344,12.481 130.717,13.51 C130.09,14.541 129.776,15.86 129.776,17.468 C129.776,18.562 130.001,19.489 130.452,20.243 C130.903,20.999 131.497,21.627 132.237,22.125 C132.977,22.625 133.823,23.026 134.772,23.333 C135.721,23.64 136.694,23.902 137.692,24.129 C140.137,24.642 142.044,25.158 143.411,25.672 C144.778,26.188 145.462,26.961 145.462,27.99 C145.462,28.599 145.317,29.107 145.028,29.509 C144.739,29.912 144.376,30.234 143.942,30.476 C143.506,30.715 143.024,30.894 142.493,31.005 C141.964,31.118 141.456,31.175 140.973,31.175 C140.297,31.175 139.645,31.095 139.018,30.934 C138.391,30.772 137.836,30.522 137.354,30.186 C136.872,29.848 136.477,29.413 136.17,28.883 C135.865,28.352 135.713,27.717 135.713,26.976 L129.197,26.976 C129.259,28.65 129.638,30.041 130.33,31.15 C131.021,32.261 131.906,33.154 132.984,33.831 C134.062,34.506 135.293,34.987 136.677,35.276 C138.06,35.566 139.476,35.713 140.923,35.713 C142.339,35.713 143.732,35.575 145.099,35.302 C145.888,35.144 146.613,34.899 147.302,34.606 C147.5,31.497 149.17,28.509 152.303,27.289 L152.303,27.289 Z" id="Shape"></path>
            </g>
        </g>
    </g>
</svg>