<?xml version="1.0" encoding="UTF-8" standalone="no"?>
<svg xmlns:sketch="http://www.bohemiancoding.com/sketch/ns" xmlns="http://www.w3.org/2000/svg" height="300px" width="400px" version="1.1" xmlns:xlink="http://www.w3.org/1999/xlink" viewBox="0 0 400 300"><!-- Generator: Sketch 3.4.2 (15855) - http://www.bohemiancoding.com/sketch -->
 <title>Logo</title>
 <desc>Created with Sketch.</desc>
 <defs>
  <linearGradient id="linearGradient-1" y1="32.723%" x2="48.563%" x1="8.295%" y2="49.46%">
   <stop stop-color="#fff" offset=".0225"/>
   <stop stop-color="#fff" offset=".15"/>
   <stop stop-color="#A7A9AC" offset=".9101"/>
   <stop stop-color="#A7A9AC" offset="1"/>
  </linearGradient>
  <linearGradient id="linearGradient-2" y1="17.982%" x2="88.424%" x1="5.4072%" y2="77.724%">
   <stop stop-color="#fff" offset=".0056"/>
   <stop stop-color="#fff" offset=".3146"/>
   <stop stop-color="#FFFBB1" offset=".3997"/>
   <stop stop-color="#FFF766" offset=".4883"/>
   <stop stop-color="#FFF42F" offset=".5619"/>
   <stop stop-color="#FFF30D" offset=".6165"/>
   <stop stop-color="#FFF200" offset=".6461"/>
   <stop stop-color="#FFF200" offset="1"/>
  </linearGradient>
 </defs>
 <g id="Page-1" fill-rule="evenodd" sketch:type="MSPage" fill="none">
  <g id="Logo" sketch:type="MSArtboardGroup">
   <g id="Dextro_Energy_logo" transform="translate(-43 61)" sketch:type="MSLayerGroup">
    <path id="path458" sketch:type="MSShapeGroup" fill="url(#linearGradient-1)" d="m391.43 10.485l-42.52 64.71-5.24-15.324s-76.87 66.739-261.2 110.72l-6.877 22.46 52.157-16.32c145.74-46.22 214.04-111.87 214.04-111.87 0-0.003 5.86 18.242 6.22 19.112 0.21 0.467 0.37 0.694 0.56 0.694l0.1-0.015c0.23-0.064 0.5-0.423 0.89-1.022 0.9-1.406 43.64-73.429 43.64-73.429 0.72-1.1896-0.66-2.7397-0.66-2.7397l-1.11 3.0247z"/>
    <path id="path477" sketch:type="MSShapeGroup" fill="url(#linearGradient-2)" d="m0.37312 104.38l-0.00328 83.01c0.07543 0 4.4879-0.83 4.4879-0.83l17.941-3.34c227.56-42.32 320.87-123.35 320.87-123.35l5.24 15.326 42.52-64.71c1.08-1.4169 1.43-2.4727 1.11-3.0239-0.15-0.2864-0.48-0.4365-0.98-0.4365-0.47 0-1.1 0.126-1.84 0.4244l-58.35 15.144 4.53 14.035c-75.84 40.635-220.47 67.811-324.99 67.811h-0.84-0.3424c-2.6922-0.02-7.6308-0.05-9.3545-0.06"/>
    <path id="path479" sketch:type="MSShapeGroup" fill="#fff" d="m330.41 42.64l-3.31 5.787-1.07-3.491-6.01 3.067s0.06 0.115 0.13 0.3c-4.1 0.982-9.45 2.598-14.49 7.664-1.55 1.585-2.85 3.496-3.82 5.559-0.4-0.88-0.44-1.964-1.2-2.49-1.54-1.018-3.72-1.077-5.85-0.15-0.19 0.072-0.89 0.352-1.72 0.665-1.38 0.523-5.86 2.281-5.86 2.281l-17.44 6.565-8.39 2.962-3.52 11.401-1.94-9.49-8.07 2.702-19.01 5.865-9.07 29.543 19.01-6.11v0.01l9.04-3.26 3.56-11.562c0.72 3.783 1.75 9.538 1.75 9.538l8.3-3.205 0.01-0.015c5.89-2.466 17.52-7.512 17.52-7.512v-0.024l8.99-4.282 2.7-8.739 0.88-0.41-0.06 0.715c-0.4 4.424-0.3 6.875-0.3 6.875l8.2-4.08s0.05-2.462 0.11-4.318c0.06-1.853-0.14-3.209-0.53-3.558 0.52-0.46 0.97-0.95 1.39-1.462 0.04 0.675 0.26 1.253 0.5 1.789 0.64 1.46 1.8 2.497 3.31 2.989 2.16 0.687 4.91 0.163 7.52-1.423 2.98-1.826 4.98-3.791 5.42-4.26l3.8-14.896 1.45 3.089-2.72 11.145 8.4-5.31 1.54-6.247 12.58-20.358-11.73 6.141z"/>
    <rect id="rect481" sketch:type="MSShapeGroup" height="201" width="333.43" y="0.0000129" x="66.03"/>
    <path id="path483" sketch:type="MSShapeGroup" fill="#A7A9AC" d="m143.64 88.468c-0.01 0.004-0.01 0.007-0.02 0.013-5.35 3.817-11.02 5.362-16.15 6.159l-20.5 2.866 16.54-54.409-1.94-0.048-17.35 56.793s2.69-0.384 3.43-0.49c0.1-0.007 9.23-1.164 17.3-2.416 4.07-0.629 10.16-1.971 16.15-6.317 1.06-0.765 2.09-1.611 3.06-2.524-0.14 0.101-0.27 0.196-0.41 0.292l-0.11 0.081z"/>
    <path id="path485" sketch:type="MSShapeGroup" fill="#A7A9AC" d="m137.99 73.261c3.38-5.168 5.05-11.605 5.05-15.482 0-1.609-0.29-2.782-0.87-3.228-0.54-0.465-1.96-1.041-4.74-0.795-0.1 0.339-0.33 1.094-0.64 2.094 0.06 0.002 0.08 0.056 0.15 0.051 5.13-0.77 4.02 3.562 3.38 6.372-0.79 3.449-2.95 9.911-5 13.052-0.6 0.933-1.25 1.76-1.93 2.495 0.24-0.157 0.47-0.256 0.7-0.323 1.36-0.999 2.67-2.335 3.9-4.236z"/>
    <path id="path487" sketch:type="MSShapeGroup" fill="#A7A9AC" d="m236.65 71.325l9.19-30.029-10.74 2.445 1.44-4.647-3.34 4.348-1.11 3.398s7.56-1.875 10.85-2.635c-2.54 8.318-9.27 30.05-9.27 30.05s8.62-2.503 12.41-3.654c3.02-0.912 4.68-2.278 5.77-3.984-0.15 0.09-0.27 0.059-0.39 0.046-0.77 0.441-1.66 0.829-2.73 1.154l-12.08 3.508z"/>
    <path id="path489" sketch:type="MSShapeGroup" fill="#A7A9AC" d="m187.09 64.861c0.21-0.308 0.36-0.555 0.51-0.795-1.79 1.456-4.08 2.607-7.04 3.17l-3.55 0.693-0.65 2.101c0.56-0.104 0.84-0.131 1.66-0.291 1.88-0.355 5.9-1.143 9.07-4.878z"/>
    <path id="path491" sketch:type="MSShapeGroup" fill="#A7A9AC" d="m194.46 48.086c0.3-0.288 1.02-1.182 1.49-1.757-2.06 1.719-4.63 2.898-7.82 3.407-2.61 0.409-4.46 0.579-5.69 0.654l-0.62 2.006c1.26-0.115 2.12-0.046 3.89-0.352 3.75-0.642 6.6-1.948 8.75-3.958z"/>
    <path id="path493" sketch:type="MSShapeGroup" fill="#A7A9AC" d="m214.78 69.981l-1.21-2.34-1.28 1.67c0.08 0.173 0.16 0.343 0.22 0.493 3.51 8.326 9.34 7.492 11.24 6.977l2.31-0.592 4.1-1.122 1.76-2.314s-0.01-0.086-0.03-0.166l-8.06 2.19c-3.49 0.968-6.88-0.842-9.05-4.796z"/>
    <path id="path495" sketch:type="MSShapeGroup" fill="#A7A9AC" d="m191.24 73.387c6.17-7.059 13.02-16.081 15.2-19.008-1.95-4.49-4.64-10.213-6.48-13.397-0.32 0.745-0.77 1.36-1.18 2.017 0.91 1.449 3.58 6.414 5.86 11.968-1.94 2.581-7.31 9.551-11.88 15.137l-1.12 2.396-0.4 0.887z"/>
    <path id="path497" sketch:type="MSShapeGroup" fill="#A7A9AC" d="m219.12 39.894l3.42-4.995c0.44-0.665 0.89-1.21 1.35-1.67l-1.19 0.177c-0.39 0.056-0.78 0.21-1.12 0.385-0.34 0.199-0.69 0.416-1.01 0.689-0.63 0.516-1.25 1.185-1.73 1.907v0.016c-0.06 0.064-0.13 0.166-0.25 0.332l-0.47 0.532-0.2 0.231c0.16 0.273 0.32 0.54 0.43 0.81l0.77 1.586z"/>
    <path id="path499" sketch:type="MSShapeGroup" fill="#A7A9AC" d="m188.98 83.169l-9.96 2.17 0.11-0.09-0.46 0.09-13.83 2.746-11.13 2.14 15.22-49.708-2.07 0.154-15.92 52.12s38.06-6.998 47.09-9.655c3.45-0.999 5.97-3.655 7.12-5.005-0.23 0.198-0.47 0.263-0.7 0.333-1.31 1.003-2.65 1.712-4.04 2.091l-11.43 2.614z"/>
    <path id="path501" sketch:type="MSShapeGroup" fill="#A7A9AC" d="m263.26 63.372l9.66-31.399c-1.05 1.124-2.32 2.119-4.01 2.815l-5.81 2.081-0.62 1.991c1.18-0.468 2.54-1.048 3.91-1.686 1.4-0.682 2.51-1.075 3.54-2.091l-9.6 31.3s8.5-2.808 11.93-3.982c2.4-0.817 3.73-1.998 4.7-3.683-0.14 0.086-0.23 0.047-0.3-0.044-0.51 0.293-1.07 0.564-1.74 0.788l-11.66 3.91z"/>
    <path id="path503" sketch:type="MSShapeGroup" fill="#A7A9AC" d="m297.92 38.617c0.78-0.677 1.43-1.622 1.8-2.828-0.86 0.862-1.67 1.541-2.38 2.057 0.18 0.235 0.39 0.517 0.58 0.771z"/>
    <path id="path505" sketch:type="MSShapeGroup" fill="#A7A9AC" d="m285.86 46.602c-0.64-1.252-1.26-2.667-1.83-4.03l-1.01 3.279 0.68 1.269c3.84 7.657 9.26 7.39 11.87 6.6 3.04-0.932 4.07-1.41 4.67-1.743 0.68-0.379 1.06-1.65 1.31-2.231-0.08 0.03-0.15 0-0.23 0.01l-4.37 1.706c-4.65 1.682-8.59-0.047-11.09-4.86z"/>
    <path id="path507" sketch:type="MSShapeGroup" fill="#A7A9AC" d="m322.8 24.848c0.76-3.235 0.41-5.004-0.09-5.511-0.18-0.187-0.5-0.235-0.92-0.131-0.65 0.153-1.28 0.712-1.88 1.453 0.53-0.022 1.16 0.097 1.23 0.168 0.4 0.359 0.93 1.983 0.11 5.551-0.56 2.494-1.27 4.209-2.16 5.474 1.26-0.879 2.82-3.254 3.71-7.004z"/>
    <path id="path509" sketch:type="MSShapeGroup" fill="#A7A9AC" d="m313.87 43.58c-3.5-0.52-6.63-2.544-8.58-5.524-1.01-1.565-2.01-3.873-2.15-6.97-0.22 0.438-0.44 0.864-0.71 1.287-0.5 0.782-1.01 1.459-1.53 2.082 0.66 2.077 2.09 5.071 2.9 6.121 2.05 2.648 5.09 4.303 8.41 4.755 3.88 0.517 8.18 0.079 12.93-3.456 1.54-1.145 2.5-2.453 3.68-3.883-4.66 4.405-10.54 6.24-14.95 5.588z"/>
    <path id="path511" sketch:type="MSShapeGroup" fill="#A7A9AC" d="m288.22 29.407c1.47-0.686 2.63-0.893 2.74-0.633 0.28 0.689-0.47 1.516-1.43 2.73-0.58 0.753-1.84 1.347-2.61 1.833 0.51-0.603 1.13-1.268 1.13-1.689 0-0.191-0.28-0.14-0.5-0.061h-0.01c0.29-0.874 0.5-1.625 0.68-2.18"/>
    <path id="path513" sketch:type="MSShapeGroup" fill="#ED1C2E" d="m135.83 51.802s-7.89 26.185-9.3 30.697c4.6-0.757 9.3-2.088 13.2-8.096 4.54-6.923 7.35-18.603 3.77-21.495-1.38-1.122-3.81-1.76-7.67-1.106zm7.69-9.572c14.74-0.839 16.91 10.928 13.83 21.098-7.02 23.01-19.6 27.59-30.2 29.237-8.12 1.257-17.23 2.411-17.23 2.411l15.82-52.053s6.06-0.035 17.78-0.693z"/>
    <path id="path515" sketch:type="MSShapeGroup" fill="#ED1C2E" d="m171.18 40.307c1.23-0.069 23.53-2.261 27.8-2.936-1.25 5.34-4.49 9.232-11.17 10.288-4.41 0.71-6.93 0.71-6.93 0.71l-2.6 8.334s8.16-0.918 12.73-1.995c-2.21 8.15-7.96 9.912-10.83 10.467l-4.78 0.933-2.87 9.2s10.25-1.373 17.23-3.71c-4.37 9.441-6.73 10.694-11.48 11.687-6.74 1.386-6.74 1.361-21.55 4.214l14.45-47.192"/>
    <path id="path517" sketch:type="MSShapeGroup" fill="#ED1C2E" d="m199.86 37.214c2.62 2.493 8.98 17.45 8.98 17.45s-14.54 19.678-22.58 26.951c2.46-0.539 10.67-2.282 13.62-3.084 2.95-0.804 5.18-3.302 6.33-4.711 1.14-1.396 7.7-10.098 7.7-10.098s1.15 2.457 2.69 5.246c1.64 2.984 4.06 4.499 6.69 3.786 2.62-0.742 6.83-1.848 8.65-2.363-2.17-2.819-8.49-17.661-8.49-17.661l16.62-21.683-11.05 1.961c-1.95 0.345-3.33 0.928-4.73 3.049-1.91 2.899-5.48 7.996-5.48 7.996s-1.3-2.494-2.35-4.88c-1.38-3.056-5.2-3.508-9.33-2.943-4.16 0.579-7.27 0.984-7.27 0.984"/>
    <path id="path519" sketch:type="MSShapeGroup" fill="#ED1C2E" d="m241.29 30.791c7.1-1.211 25.9-5.186 33.29-7.047-0.8 3.516-2.29 7.383-6.45 9.087-3.67 1.513-6.72 2.418-6.72 2.418s-6.28 20.407-7.34 23.972c-1.06 3.566-2.05 5.404-5.96 6.587-3.81 1.159-8.33 2.423-8.33 2.423s7.88-25.626 9.13-29.78c-3.09 0.827-10.74 2.444-10.74 2.444l3.12-10.104"/>
    <path id="path521" sketch:type="MSShapeGroup" fill="#ED1C2E" d="m277.87 22.969c3.03-0.684 9.83-2.64 14.73-3.867 8.95-2.229 12.31 5.467 8.07 12.148-2.76 4.341-6.28 6.035-6.28 6.035s5.05 7.462 8.31 9.688c0 0-3.48 1.437-6.46 2.51-2.1 0.767-5.8 1.4-8.53-3.848-1.75-3.442-3.6-8.557-3.6-8.557s4.33-0.938 6.73-3.992c2.84-3.603 4.25-8.003-0.78-6.593-1.13 0.322-3.64 1.14-3.64 1.14s-4.85 16.022-7.01 22.882c-1.34 4.284-2.09 5.916-5.16 6.959-3.44 1.182-7.79 2.614-7.79 2.614l11.41-37.119"/>
    <path id="path523" sketch:type="MSShapeGroup" fill="#ED1C2E" d="m321.3 17.161c-2.33 0.564-4.54 3.238-6 8.474-2.27 8.09 1.5 9.912 4.51 8.295 2.19-1.183 4.07-4.603 5.01-8.601 1.61-6.823-0.91-8.795-3.52-8.168zm12.49 7.37c-2.42 12.652-13.15 17.926-19.61 16.97-5.57-0.831-10.88-6.377-8.31-15.89 2.29-8.466 8.26-13.77 15.03-15.283 7.98-1.8067 14.98 3.424 12.89 14.203z"/>
    <path id="path525" sketch:type="MSShapeGroup" fill="#ED1C2E" d="m230.31 83.398c-1.71 6.524-7.73 25.142-7.73 25.142 5.62-1.65 15.19-4.79 15.19-4.79l1.52-4.962-9.43 3.192 1.79-5.889 8.72-2.982 1.57-5.093-8.77 3.145 1.47-4.778 9.34-3.253 1.44-4.544c0-0.002-9.9 3.176-15.11 4.812"/>
    <path id="path527" sketch:type="MSShapeGroup" fill="#ED1C2E" d="m271.85 69.469c-0.37 1.267-6.07 20.041-7.42 24.21 5.82-2.426 13.15-5.721 13.15-5.721l1.41-4.599-8.2 3.547 1.6-5.217 7.75-3.252 1.46-4.726-7.8 3.395 1.49-4.874 8.14-3.264 1.32-4.313c0 0.001-8.32 3.173-12.9 4.814"/>
    <path id="path529" sketch:type="MSShapeGroup" fill="#ED1C2E" d="m249.23 77.348l-7.8 25.142s3.31-1.18 5.02-1.8c0 0 2.99-9.68 4.77-15.557 0.24-0.949 0.47-2.087 0.46-3.031 0 0 0.1 1.302 0.29 2.381 0.9 4.514 2.5 13.152 2.5 13.152l5.65-2.241 7.49-24.385s-3.07 1.096-4.86 1.718c0 0-3.12 10.201-4.77 15.39l-0.44 1.99s0-0.924-0.22-1.748c-0.23-0.834-2.68-12.856-2.68-12.856-2.35 0.833-5.41 1.845-5.41 1.845"/>
    <path id="path531" sketch:type="MSShapeGroup" fill="#ED1C2E" d="m281.53 86.05c2.5-8.147 7.06-22.883 7.06-22.883 3.09-1.243 6.33-2.436 6.87-2.674 2.44-1.068 5.45-0.617 5.48 2.734 0.02 2.5-1.19 6.098-4.73 8.021 0.82 0.111 1.59 1.046 1.57 2.724l-0.06 4.195s-3.14 1.568-4.81 2.437c0 0 0.1-2.239 0.26-3.899 0.19-2.143 0.01-3.572-1.85-2.738l-2.08 0.982-2.72 8.798c-1.57 0.767-3.39 1.533-4.99 2.303zm10.83-21.278c-0.46 1.575-1.49 4.874-1.96 6.427 0 0 2.17-0.963 2.59-1.183 2.22-1.122 3.6-2.931 3.72-4.473 0.11-1.435-0.84-2.192-2.67-1.415 0 0.001-1.26 0.472-1.68 0.644z"/>
    <path id="path533" sketch:type="MSShapeGroup" fill="#ED1C2E" d="m320.32 49.972s-1.21 2.948-1.57 4c-0.94 0.055-3.23 0.517-6.04 2.407-3.25 2.185-5.48 5.885-6.09 8.734-0.87 4.016 1.31 4.175 1.94 4.152 1.52-0.057 3.35-2.047 3.35-2.047l1.07-4.201-2.9 1.703 1.32-3.952 7.11-3.89-2.87 11.198s-1.72 1.824-4.97 3.819c-3.23 1.976-6.94 2.151-8.19-0.731-1.39-3.131 0.12-9.573 4.5-14 5.85-5.915 13.34-7.192 13.34-7.192"/>
    <path id="polyline535" sketch:type="MSShapeGroup" fill="#ED1C2E" d="m324.12 57.156l-1.83 7.505 4.3-2.698 1.39-5.837 9.56-15.388-5.9 3.214-4.92 8.537-1.74-5.085-4.19 2.246 3.33 7.506"/>
    <path id="path537" sketch:type="MSShapeGroup" fill="#A7A9AC" d="m304.64 22.801c0.91-2.557 2.68-5.596 4.22-6.639-0.03 0.035-2.93 0.214-5.15 4.661 0.35 0.35 0.82 1.006 0.93 1.978z"/>
   </g>
  </g>
 </g>
</svg>
