<?xml version="1.0" encoding="UTF-8" standalone="no"?>
<svg xmlns:sketch="http://www.bohemiancoding.com/sketch/ns" xmlns="http://www.w3.org/2000/svg" height="300px" width="400px" version="1.1" xmlns:xlink="http://www.w3.org/1999/xlink" viewBox="0 0 400 300"><!-- Generator: Sketch 3.4.2 (15855) - http://www.bohemiancoding.com/sketch -->
 <title>Logo</title>
 <desc>Created with Sketch.</desc>
 <g id="Page-1" fill-rule="evenodd" sketch:type="MSPage" fill="none">
  <g id="Logo" sketch:type="MSArtboardGroup">
   <g id="Henkel-compressor" transform="translate(57 67)" sketch:type="MSLayerGroup">
    <g id="layer1" sketch:type="MSShapeGroup" transform="translate(.039070 .39739)">
     <g id="g10459" transform="translate(.35736 .34944)">
      <path id="path5195" fill="#fff" d="m4.1674 77.705c0-42.396 62.851-73.959 135.39-73.959 72.54-0.0001 135.43 31.563 135.43 73.959 0 42.405-62.89 73.895-135.43 73.895-72.542 0-135.39-31.49-135.39-73.895"/>
      <path id="path5197" fill="#EC1B23" d="m139.56 0.25407c76.72 0 138.98 34.703 138.98 77.451 0 42.755-62.26 77.445-138.98 77.445-76.684 0-138.95-34.69-138.95-77.445 0.00209-42.748 62.266-77.451 138.95-77.451v0.00007zm0 6.9835c-72.803 0-131.93 31.634-131.93 70.467-0.0049 38.845 59.127 70.405 131.93 70.405 72.8 0 131.93-31.56 131.93-70.405 0-38.833-59.13-70.467-131.93-70.467v-0.0004zm-24.41 77.9h-27.347c0.325 6.736 4.102 9.857 9.761 9.857 4.206 0 7.086-2.372 7.826-4.756h8.95c-2.29 8.15-8.95 11.921-17.16 11.921-11.643 0-18.884-8.012-18.884-19.452 0-11.087 7.664-19.524 18.884-19.524 12.61 0 18.68 10.58 17.97 21.954zm-18.231-14.977c-5.691 0-8.602 3.785-9.051 8.632h17.742c-0.68-5.172-2.84-8.632-8.691-8.632zm136.65 14.977h-27.35c0.29 6.736 4.11 9.857 9.73 9.857 4.23 0 7.11-2.372 7.85-4.756h8.96c-2.29 8.15-8.96 11.921-17.17 11.921-11.67 0-18.87-8.012-18.87-19.452 0-11.087 7.66-19.524 18.87-19.524 12.62 0 18.69 10.58 17.98 21.954zm-18.26-14.977c-5.66 0-8.57 3.785-9.05 8.632h17.77c-0.67-5.172-2.84-8.632-8.72-8.632zm-184.86 30.999h10.145v-22.028h21.918v22.028h10.152v-51.168h-10.152v20.951h-21.918v-20.951h-10.145v51.168zm90.295 0h9.56v-20.002c0-7.511 2.66-10.586 8.15-10.586 4.72 0 6.85 3.003 6.85 9.081v21.507h9.54v-22.745c0-9.153-2.71-15.231-13.55-15.231-4.26 0-8.72 2-11.28 6.15h-0.22v-5.153h-9.05v36.979zm42.25 0h9.53v-20.028l14.1 20.028h11.86l-15.51-20.751 13.74-16.228h-11.39l-12.8 15.948v-30.137h-9.53v51.168zm76.17 0h9.53v-51.168h-9.53v51.168z"/>
     </g>
    </g>
   </g>
  </g>
 </g>
</svg>
