<?xml version="1.0" encoding="UTF-8" standalone="no"?>
<svg xmlns:sketch="http://www.bohemiancoding.com/sketch/ns" xmlns="http://www.w3.org/2000/svg" height="300px" width="400px" version="1.1" xmlns:xlink="http://www.w3.org/1999/xlink" viewBox="0 0 400 300"><!-- Generator: Sketch 3.4.2 (15855) - http://www.bohemiancoding.com/sketch -->
 <title>LBSLogo</title>
 <desc>Created with Sketch.</desc>
 <g id="Page-1" fill-rule="evenodd" sketch:type="MSPage" fill="none">
  <g id="LBSLogo" fill="#f00" sketch:type="MSArtboardGroup">
   <g id="Landesbausparkassen" transform="translate(25 84)" sketch:type="MSLayerGroup">
    <g id="layer1" sketch:type="MSShapeGroup">
     <g id="Ebene_x0020_1" transform="translate(.27996 .12741)">
      <path id="path2919" d="m143.52 122.72c0-2.73-4.05-2.01-4.05-4.02 0-0.89 0.68-1.49 1.94-1.49 0.51 0 1.09 0.09 1.58 0.23l0.06-0.89c-0.52-0.11-1.03-0.17-1.57-0.17-1.92 0-3.03 1.04-3.03 2.42 0 2.77 4.05 1.98 4.05 4.05 0 1.19-0.94 1.65-2.07 1.65-0.61 0-1.28-0.14-1.78-0.33l-0.06 0.98c0.48 0.13 1.1 0.22 1.75 0.22 1.98 0 3.18-1.1 3.18-2.65zm5.75-0.91c0 1.95-0.87 2.75-2.2 2.75-0.48 0-0.88-0.05-1.26-0.17v-2.25c0-1.14 0.62-2.65 1.92-2.65 1.06 0 1.54 0.87 1.54 2.32zm1.02-0.07c0-2-0.85-3.05-2.37-3.05-1.02 0-1.84 0.59-2.2 1.53l-0.02-0.01c0.07-0.38 0.1-1.02 0.1-1.41h-0.96v9.68h0.97v-3.24c0.43 0.08 0.75 0.09 1.19 0.09 2.03 0 3.29-1.29 3.29-3.59zm4.76 0.59c0 1.12-0.75 2.25-1.89 2.25-0.64 0-1.05-0.38-1.05-0.96 0-0.63 0.52-1.39 2.94-1.39v0.1zm1.01 2.92c-0.03-0.57-0.03-1.3-0.03-1.93v-2.53c0-1.22-0.51-2.1-2.28-2.1-0.87 0-1.62 0.21-2.22 0.48l0.09 0.85c0.57-0.36 1.34-0.55 1.96-0.55 1.12 0 1.47 0.54 1.47 1.51v0.54c-2.51 0-3.91 0.93-3.91 2.28 0 1.02 0.74 1.57 1.76 1.57 1.1 0 1.93-0.66 2.24-1.48h0.02c-0.06 0.38-0.06 0.87-0.06 1.36h0.96zm5.06-6.56c-1.35-0.16-2.02 0.8-2.28 1.75l-0.01-0.01c0.09-0.56 0.14-1.2 0.14-1.63h-0.96v6.45h0.97v-2.58c0-2.17 0.67-3.26 2.1-3.02l0.04-0.96zm5.84 6.56l-2.75-3.51 2.56-2.94h-1.18l-2.42 2.9v-5.92h-0.97v9.47h0.97v-3.38l2.54 3.38h1.25zm4.71-2.92c0 1.12-0.75 2.25-1.89 2.25-0.63 0-1.05-0.38-1.05-0.96 0-0.63 0.52-1.39 2.94-1.39v0.1zm1.01 2.92c-0.03-0.57-0.03-1.3-0.03-1.93v-2.53c0-1.22-0.5-2.1-2.28-2.1-0.86 0-1.61 0.21-2.22 0.48l0.09 0.85c0.57-0.36 1.35-0.55 1.97-0.55 1.11 0 1.46 0.54 1.46 1.51v0.54c-2.51 0-3.91 0.93-3.91 2.28 0 1.02 0.74 1.57 1.76 1.57 1.1 0 1.93-0.66 2.24-1.48h0.03c-0.07 0.38-0.07 0.87-0.07 1.36h0.96zm5.49-1.92c0-2.19-3.14-1.31-3.14-2.85 0-0.64 0.46-1.03 1.41-1.03 0.44 0 0.9 0.08 1.33 0.22l0.02-0.84c-0.4-0.08-0.85-0.14-1.25-0.14-1.63 0-2.51 0.82-2.51 1.89 0 2.3 3.13 1.32 3.13 2.88 0 0.68-0.65 1.09-1.58 1.09-0.5 0-1.02-0.09-1.43-0.21l-0.03 0.9c0.39 0.08 0.88 0.13 1.36 0.13 1.68 0 2.69-0.9 2.69-2.04zm5.15 0c0-2.19-3.15-1.31-3.15-2.85 0-0.64 0.47-1.03 1.41-1.03 0.44 0 0.91 0.08 1.34 0.22l0.02-0.84c-0.4-0.08-0.85-0.14-1.25-0.14-1.63 0-2.51 0.82-2.51 1.89 0 2.3 3.13 1.32 3.13 2.88 0 0.68-0.65 1.09-1.58 1.09-0.51 0-1.02-0.09-1.44-0.21l-0.02 0.9c0.38 0.08 0.88 0.13 1.36 0.13 1.68 0 2.69-0.9 2.69-2.04zm5.2-2.23h-3.27c0.16-1.01 0.81-1.67 1.71-1.67 0.99 0 1.58 0.67 1.56 1.67zm1 0.25c0-1.43-0.73-2.66-2.51-2.66s-2.82 1.44-2.82 3.37c0 2.26 1.04 3.31 2.98 3.31 0.8 0 1.53-0.14 2.12-0.39l-0.09-0.83c-0.48 0.24-1.19 0.41-1.86 0.41-1.44 0-2.2-0.8-2.14-2.73h4.3c0.02-0.2 0.02-0.37 0.02-0.48zm6.54 3.9v-4.5c0-1.14-0.46-2.07-1.93-2.07-1.13 0-1.94 0.63-2.31 1.56l-0.02-0.01c0.06-0.39 0.1-1.01 0.1-1.43h-0.96v6.45h0.97v-3.1c0-1.53 0.82-2.67 1.97-2.67 0.93 0 1.21 0.58 1.21 1.59v4.18h0.97zm-148.52-2.55c0 1.02-0.673 1.79-2.213 1.79-0.569 0-0.957-0.04-1.19-0.08v-3.3c0.207-0.01 0.686-0.01 0.841-0.01 1.436 0 2.562 0.36 2.562 1.6zm-0.207-4c0 1.04-0.815 1.65-2.368 1.65-0.336 0-0.556 0-0.828-0.01v-3.05c0.375-0.02 0.828-0.03 1.255-0.03 1.54 0 1.941 0.61 1.941 1.44zm1.242 3.97c0-0.93-0.556-1.84-1.85-2.04v-0.02c0.983-0.29 1.643-1.12 1.643-2.08 0-1.27-0.892-2.07-2.795-2.07-1.048 0-1.837 0.02-2.433 0.04v8.75c0.751 0.02 1.579 0.04 2.11 0.04 2.756 0 3.325-1.67 3.325-2.62zm4.861-0.34c0 1.12-0.75 2.25-1.889 2.25-0.634 0-1.048-0.38-1.048-0.96 0-0.63 0.518-1.39 2.937-1.39v0.1zm1.01 2.92c-0.026-0.57-0.026-1.3-0.026-1.93v-2.53c0-1.22-0.505-2.1-2.278-2.1-0.867 0-1.617 0.21-2.225 0.48l0.09 0.85c0.57-0.36 1.346-0.55 1.967-0.55 1.113 0 1.462 0.54 1.462 1.51v0.54c-2.51 0-3.908 0.93-3.908 2.28 0 1.02 0.738 1.57 1.76 1.57 1.1 0 1.928-0.66 2.239-1.48h0.026c-0.065 0.38-0.065 0.87-0.065 1.36h0.958zm6.82 0v-6.45h-0.971v3.1c0 1.54-0.815 2.68-1.967 2.68-0.931 0-1.203-0.59-1.203-1.6v-4.18h-0.971v4.51c0 1.14 0.453 2.07 1.928 2.07 1.126 0 1.942-0.63 2.304-1.57l0.026 0.01c-0.065 0.39-0.104 1.02-0.104 1.43h0.958zm5.614-1.92c0-2.19-3.145-1.31-3.145-2.85 0-0.64 0.466-1.03 1.411-1.03 0.44 0 0.906 0.08 1.333 0.22l0.026-0.84c-0.402-0.08-0.855-0.14-1.256-0.14-1.63 0-2.51 0.82-2.51 1.89 0 2.3 3.131 1.32 3.131 2.88 0 0.68-0.647 1.09-1.578 1.09-0.505 0-1.023-0.09-1.437-0.21l-0.026 0.9c0.389 0.08 0.88 0.13 1.359 0.13 1.682 0 2.692-0.9 2.692-2.04zm5.91-1.52c0 1.95-0.867 2.75-2.2 2.75-0.479 0-0.88-0.05-1.255-0.17v-2.25c0-1.14 0.621-2.65 1.915-2.65 1.061 0 1.54 0.87 1.54 2.32zm1.023-0.07c0-2-0.854-3.05-2.369-3.05-1.022 0-1.837 0.59-2.199 1.53l-0.026-0.01c0.077-0.38 0.103-1.02 0.103-1.41h-0.958v9.68h0.971v-3.24c0.427 0.08 0.751 0.09 1.191 0.09 2.031 0 3.287-1.29 3.287-3.59zm4.782 0.59c0 1.12-0.75 2.25-1.889 2.25-0.634 0-1.048-0.38-1.048-0.96 0-0.63 0.518-1.39 2.937-1.39v0.1zm1.01 2.92c-0.026-0.57-0.026-1.3-0.026-1.93v-2.53c0-1.22-0.505-2.1-2.278-2.1-0.867 0-1.617 0.21-2.226 0.48l0.091 0.85c0.57-0.36 1.346-0.55 1.967-0.55 1.113 0 1.462 0.54 1.462 1.51v0.54c-2.51 0-3.908 0.93-3.908 2.28 0 1.02 0.738 1.57 1.76 1.57 1.1 0 1.928-0.66 2.239-1.48h0.026c-0.065 0.38-0.065 0.87-0.065 1.36h0.958zm4.777-6.56c-1.346-0.16-2.019 0.8-2.277 1.75l-0.013-0.01c0.09-0.56 0.142-1.2 0.142-1.63h-0.958v6.45h0.971v-2.58c0-2.17 0.673-3.26 2.096-3.02l0.039-0.96zm5.957 6.56l-2.756-3.51 2.562-2.94h-1.177l-2.42 2.9v-5.92h-0.971v9.47h0.971v-3.38l2.536 3.38h1.255zm4.587-2.92c0 1.12-0.751 2.25-1.89 2.25-0.634 0-1.048-0.38-1.048-0.96 0-0.63 0.518-1.39 2.938-1.39v0.1zm1.009 2.92c-0.026-0.57-0.026-1.3-0.026-1.93v-2.53c0-1.22-0.504-2.1-2.277-2.1-0.867 0-1.618 0.21-2.226 0.48l0.091 0.85c0.569-0.36 1.345-0.55 1.966-0.55 1.113 0 1.463 0.54 1.463 1.51v0.54c-2.511 0-3.908 0.93-3.908 2.28 0 1.02 0.737 1.57 1.76 1.57 1.1 0 1.928-0.66 2.238-1.48h0.026c-0.064 0.38-0.064 0.87-0.064 1.36h0.957zm5.63-1.92c0-2.19-3.148-1.31-3.148-2.85 0-0.64 0.466-1.03 1.41-1.03 0.438 0 0.908 0.08 1.338 0.22l0.02-0.84c-0.4-0.08-0.85-0.14-1.254-0.14-1.63 0-2.51 0.82-2.51 1.89 0 2.3 3.134 1.32 3.134 2.88 0 0.68-0.65 1.09-1.582 1.09-0.504 0-1.022-0.09-1.436-0.21l-0.026 0.9c0.388 0.08 0.88 0.13 1.359 0.13 1.685 0 2.695-0.9 2.695-2.04zm5.01 0c0-2.19-3.14-1.31-3.14-2.85 0-0.64 0.47-1.03 1.41-1.03 0.44 0 0.91 0.08 1.33 0.22l0.03-0.84c-0.4-0.08-0.85-0.14-1.26-0.14-1.63 0-2.51 0.82-2.51 1.89 0 2.3 3.14 1.32 3.14 2.88 0 0.68-0.65 1.09-1.58 1.09-0.51 0-1.03-0.09-1.44-0.21l-0.03 0.9c0.39 0.08 0.88 0.13 1.36 0.13 1.69 0 2.69-0.9 2.69-2.04zm5.33-2.23h-3.26c0.15-1.01 0.8-1.67 1.7-1.67 0.99 0 1.58 0.67 1.56 1.67zm1.01 0.25c0-1.43-0.74-2.66-2.51-2.66-1.79 0-2.83 1.44-2.83 3.37 0 2.26 1.04 3.31 2.98 3.31 0.8 0 1.53-0.14 2.12-0.39l-0.09-0.83c-0.48 0.24-1.19 0.41-1.86 0.41-1.44 0-2.2-0.8-2.14-2.73h4.3c0.03-0.2 0.03-0.37 0.03-0.48zm9.02 0.57c0 1.14-0.63 2.64-1.91 2.64-1.06 0-1.56-0.87-1.56-2.32 0-1.94 0.88-2.75 2.2-2.75 0.42 0 0.83 0.05 1.27 0.16v2.27zm0.96 3.33v-9.47h-0.96v3.01c-0.44-0.04-0.81-0.06-1.19-0.06-2 0-3.3 1.29-3.3 3.59 0 1.88 0.78 3.05 2.37 3.05 1.04 0 1.85-0.61 2.21-1.53l0.03 0.01c-0.08 0.39-0.12 1.01-0.12 1.4h0.96zm5.69-4.15h-3.26c0.15-1.01 0.8-1.67 1.7-1.67 0.99 0 1.58 0.67 1.56 1.67zm1.01 0.25c0-1.43-0.74-2.66-2.52-2.66s-2.82 1.44-2.82 3.37c0 2.26 1.04 3.31 2.98 3.31 0.8 0 1.53-0.14 2.12-0.39l-0.09-0.83c-0.48 0.24-1.19 0.41-1.86 0.41-1.44 0-2.2-0.8-2.14-2.73h4.3c0.03-0.2 0.03-0.37 0.03-0.48zm4.52-2.66c-1.35-0.16-2.02 0.8-2.28 1.75l-0.01-0.01c0.09-0.56 0.14-1.2 0.14-1.63h-0.96v6.45h0.97v-2.58c0-2.17 0.68-3.26 2.1-3.02l0.04-0.96zm212.18-107.38c0.35 0.3 0.5 0.579-0.66 0.215-1.66-0.525-2.96-0.837-4.02-1.11-17.47-4.4268-37.06-3.4808-53.84 0.807-11.22 2.869-24.99 9.074-40.14 18.769-11.94 7.646-16.39 10.745-26.78 19.3-43.69-31.907-73.43-39.283-108.78-39.283-47.347 0-87.893 20.465-111.27 38.614-0.78935 0.608-1.0518 0.378-0.52695-0.181 21.02-22.704 65.253-48.444 120.25-48.444 42.01 0 79.37 16.728 100.33 32.901 11.24-8.289 26.41-16.798 42.95-22.926 15.97-5.9175 29.96-7.5716 40.64-7.5716 19.29 0 30.52 2.8788 37.53 6.3621 1.17 0.5814 3.59 1.9095 4.32 2.5475zm-303.16 94.697h42.518v-14.885h-23.779v-45.893h-18.739v60.778zm100.89-17.777l-0.84 0.145c3.27 13.202 14.58 18.512 27.31 18.512 12.03 0 25.83-5.36 26.98-18.654 0.05-0.583 0.07-1.189 0.07-1.807 0-6.644-3.09-12.315-9.01-15.504-5.31-2.747-11.41-3.722-17.15-4.873-2.3-0.531-6.72-1.152-6.72-4.341s3.53-3.898 6.01-3.898c4.68 0 8.04 1.594 9.81 6.113l15.38-4.696c-3.71-10.543-13.88-14.884-24.39-14.884-6.02 0-12.47 1.151-17.42 4.607-4.86 3.455-7.78 9.302-7.78 15.238 0 14.442 13.53 17.542 24.93 19.757 2.57 0.498 6.83 1.151 7.37 4.283 0.04 0.212 0.06 0.44 0.06 0.679 0 3.367-4.78 3.721-7.16 3.721-4.27 0-7.69-1.219-9.73-4.398-0.54-0.843-0.99-1.823-1.32-2.956l-16.4 2.956zm-21.54 0c-0.3 1.227-1.08 2.327-2.09 3.068-1.5 1.242-3.54 1.152-5.39 1.152h-8.05v-4.22-6.765h7.34c1.68 0 3.8 0 5.39 0.797 1.77 0.886 2.92 2.746 2.92 4.784 0 0.402-0.02 0.798-0.12 1.184zm-15.53-19.701v-10.277h7.25c3.54 0 7.25 0.621 7.25 5.139 0 1.418-0.62 2.924-1.77 3.987-1.32 1.24-3.45 1.151-5.21 1.151h-7.52zm33.61 19.701c-0.06-7.19-4.84-12.443-11.77-13.676v-0.177c6.18-1.418 10.25-6.822 10.25-13.201 0-4.961-2.39-9.923-6.45-12.846-3.8-2.747-8.49-3.101-13.09-3.101h-29.608v60.778h27.758c5.48 0 12.02-0.09 16.7-3.46 4.34-3.098 6.21-9.093 6.21-14.321v0.004z"/>
     </g>
    </g>
   </g>
  </g>
 </g>
</svg>
