<?xml version="1.0" encoding="UTF-8" standalone="no"?>
<svg xmlns:sketch="http://www.bohemiancoding.com/sketch/ns" xmlns="http://www.w3.org/2000/svg" height="300px" width="400px" version="1.1" xmlns:xlink="http://www.w3.org/1999/xlink" viewBox="0 0 400 300"><!-- Generator: Sketch 3.4.2 (15855) - http://www.bohemiancoding.com/sketch -->
 <title>Logo</title>
 <desc>Created with Sketch.</desc>
 <g id="Page-1" fill-rule="evenodd" sketch:type="MSPage" fill="none">
  <g id="Logo" sketch:type="MSArtboardGroup">
   <g id="Makita_Logo" transform="translate(46 99)" sketch:type="MSLayerGroup">
    <g id="layer1" sketch:type="MSShapeGroup" transform="translate(.34992 .16550)">
     <g id="g2364" transform="translate(.27855 .30902)">
      <path id="path43" fill="#EC1B24" d="m0.099435 98.122h302.95v-97.898l-302.95 0.00026-0.000565 97.898z"/>
      <path id="path45" fill="#fff" d="m219.17 98.21c-1.43-0.608-5.4-2.646-5.91-6.693l-7.37 6.703-17.15-0.01c-1.7-0.471-4.79-1.999-5.76-6.909l-7.09 6.899-14.97 0.02-6.39-20.736-7.91 20.716h-14.34l2.7-6.958c-5.76 4.792-7.54 6.458-8.06 6.978l-12.18-0.01c-4.58-2.117-4.91-7.017-4.91-7.017-5.94 4.861-7.79 6.488-8.33 7.017l-10.64-0.01c-3.91-1.833-5.152-6.791-5.152-6.791-5.94 4.38-9.394 6.791-9.394 6.791h-19.304l11.455-29.555h-10.212l-11.061 29.555h-14.243l13.061-36.464h-9.334l-13.909 36.464h-14.243l16.364-43.373h-24.849l-0.000179-12.514h43.546l-2.454 7.34h23.576l-2.666 7.546h23.788l-10.909 29.996h11.121l8.667-21.578s3.334-8.418 11.122-8.418h30.03l-10.67 30.212h11.13l17.12-45.098h13.54l-10.45 29.781 15.57-14.895h16.25l-19.58 19.207 2.88 11.22 12.03-0.108 12-30.535h13.55l-10.88 30.428h15.57l7.76-20.501h-9.12l3.58-9.927h8.66l6-14.67h14l-5.33 14.239h8.24l-3.33 10.142h-8.91l-7.33 20.501h15.57l7.34-19.638s3.12-10.133 12.24-10.358h29.33l-10.88 29.996h21.34v11.005h-28.46s-6.66-0.862-7.79-6.899l-6.91 6.899h-9.75s-6.25-0.862-7.12-6.899l-7.13 6.909h-16.75zm47.79-10.584l7.54-18.981h-9.57l-7.55 18.981h9.58zm-156.52 0l7.54-18.981h-9.54l-7.58 18.981h9.58z"/>
      <path id="path47" fill="#fff" d="m196.77 53.455l4-11.22h13.58l-4 11.22h-13.58"/>
      <path id="path49" fill="#fff" d="m287.26 36.208h-2.18v-2.068h2.36c0.46 0 1.24 0.079 1.24 1.02 0 0.901-0.72 1.048-1.42 1.048zm2.33 2.568l-0.06-1.098c-0.03-0.843-0.42-0.999-0.82-1.146 0.43-0.226 0.94-0.559 0.94-1.461 0-1.283-1.15-1.636-2.3-1.636h-3.21v6.085h0.94v-2.606h2.27c1.15 0 1.27 0.588 1.27 1.087 0 0.226 0.03 1.147 0.15 1.519h1.19v-0.137c-0.31-0.147-0.37-0.264-0.37-0.607z"/>
      <path id="path51" fill="#fff" d="m286.83 41.588c-1.36 0-2.63-0.529-3.6-1.499s-1.52-2.254-1.52-3.626 0.55-2.656 1.52-3.626 2.24-1.499 3.6-1.499c1.37 0 2.67 0.529 3.61 1.499 0.97 0.97 1.52 2.254 1.52 3.626 0 2.832-2.31 5.125-5.13 5.125zm4.04-9.143c-1.1-1.078-2.52-1.666-4.04-1.666-3.12 0-5.66 2.548-5.66 5.684 0 1.519 0.57 2.95 1.66 4.028 1.07 1.068 2.49 1.665 4 1.665 1.52 0 2.94-0.597 4.04-1.665 1.06-1.078 1.63-2.509 1.63-4.028s-0.57-2.95-1.63-4.018z"/>
     </g>
    </g>
   </g>
  </g>
 </g>
</svg>
