<?xml version="1.0" encoding="UTF-8" standalone="no"?>
<svg xmlns:sketch="http://www.bohemiancoding.com/sketch/ns" xmlns="http://www.w3.org/2000/svg" height="300px" width="400px" version="1.1" xmlns:xlink="http://www.w3.org/1999/xlink" viewBox="0 0 400 300"><!-- Generator: Sketch 3.4.2 (15855) - http://www.bohemiancoding.com/sketch -->
 <title>NovaLogo</title>
 <desc>Created with Sketch.</desc>
 <g id="Page-1" fill-rule="evenodd" sketch:type="MSPage" fill="none">
  <g id="NovaLogo" sketch:type="MSArtboardGroup">
   <g id="Novartis-Logo" transform="translate(22 113)" sketch:type="MSLayerGroup">
    <g id="layer1" sketch:type="MSShapeGroup" transform="translate(.22880 .036863)">
     <g id="g1991" transform="translate(.031669 .034995)">
      <path id="path8" fill="#005579" d="m82.516 49.043c0.076 3.009 0.577 4.012 1.344 4.279 0.654 0.233 1.383 0.271 1.998 0.271 0.422 0 0.654 0.076 0.654 0.309 0 0.309-0.346 0.385-0.882 0.385-2.499 0-4.037-0.115-4.767-0.115-0.345 0-2.15 0.115-4.148 0.115-0.501 0-0.847-0.038-0.847-0.385 0-0.233 0.232-0.309 0.616-0.309 0.501 0 1.192-0.038 1.728-0.191 0.999-0.309 1.154-1.43 1.192-4.786l0.346-22.833c0-0.774 0.114-1.312 0.498-1.312 0.425 0 0.771 0.5 1.424 1.194 0.46 0.503 6.298 6.789 11.909 12.383 2.613 2.624 7.809 8.177 8.459 8.795h0.17l-0.38-17.319c-0.03-2.353-0.38-3.088-1.29-3.473-0.582-0.23-1.505-0.23-2.041-0.23-0.46 0-0.615-0.117-0.615-0.347 0-0.309 0.422-0.35 0.999-0.35 2.007 0 3.857 0.118 4.647 0.118 0.44 0 1.87-0.118 3.78-0.118 0.5 0 0.88 0.041 0.88 0.35 0 0.23-0.24 0.347-0.71 0.347-0.38 0-0.67 0-1.14 0.115-1.08 0.309-1.38 1.118-1.43 3.279l-0.41 24.34c0 0.85-0.15 1.197-0.5 1.197-0.44 0-0.88-0.424-1.32-0.85-2.41-2.315-7.33-7.368-11.326-11.339-4.189-4.168-8.455-8.989-9.146-9.721h-0.114l0.422 16.201"/>
      <path id="path10" fill="#005579" d="m146.24 40.439c0-8.641-4.95-14.003-11.25-14.003-4.42 0-9.46 2.471-9.46 12.074 0 8.024 4.42 14.389 11.81 14.389 2.69 0 8.9-1.312 8.9-12.46zm-26.01-0.732c0-6.597 4.33-15.121 15.88-15.121 9.55 0 15.52 5.594 15.52 14.427s-6.15 15.815-15.9 15.815c-11.05 0-15.5-8.294-15.5-15.121z"/>
      <path id="path12" fill="#005579" d="m164.17 28.907c-0.88-2.121-1.52-2.548-2.93-2.933-0.55-0.153-1.17-0.153-1.49-0.153s-0.44-0.117-0.44-0.347c0-0.309 0.41-0.35 0.99-0.35 2.03 0 4.22 0.118 5.57 0.118 0.97 0 2.81-0.118 4.72-0.118 0.47 0 0.88 0.079 0.88 0.35 0 0.268-0.24 0.347-0.56 0.347-0.62 0-1.2 0.038-1.52 0.268-0.27 0.194-0.38 0.465-0.38 0.812 0 0.5 0.35 1.579 0.87 2.97l6.63 17.513h0.14c1.67-4.244 6.65-16.666 7.59-19.21 0.17-0.503 0.32-1.082 0.32-1.429 0-0.309-0.15-0.615-0.47-0.733-0.47-0.153-1.05-0.191-1.55-0.191-0.35 0-0.64-0.038-0.64-0.309 0-0.309 0.35-0.388 1.08-0.388 1.9 0 3.51 0.118 4.01 0.118 0.68 0 2.46-0.118 3.61-0.118 0.52 0 0.82 0.079 0.82 0.35 0 0.268-0.24 0.347-0.62 0.347s-1.2 0-1.87 0.462c-0.5 0.347-1.09 1.003-2.11 3.471-1.53 3.626-2.55 5.709-4.63 10.456-2.46 5.63-4.25 9.836-5.1 11.762-1 2.239-1.23 2.856-1.79 2.856-0.49 0-0.7-0.541-1.43-2.353l-9.7-23.568"/>
      <path id="path14" fill="#005579" d="m212.57 42.292c0.2 0 0.23-0.117 0.2-0.232l-3.45-9.527c-0.03-0.156-0.09-0.347-0.21-0.347s-0.17 0.191-0.2 0.347l-3.55 9.489c-0.03 0.153 0 0.27 0.15 0.27h7.06zm-7.82 1.927c-0.21 0-0.27 0.079-0.36 0.312l-2.08 5.515c-0.38 0.964-0.55 1.888-0.55 2.353 0 0.694 0.32 1.194 1.52 1.194h0.59c0.44 0 0.55 0.076 0.55 0.309 0 0.309-0.2 0.385-0.64 0.385-1.23 0-2.87-0.115-4.07-0.115-0.41 0-2.55 0.115-4.54 0.115-0.5 0-0.74-0.076-0.74-0.385 0-0.233 0.18-0.309 0.47-0.309 0.35 0 0.88-0.038 1.2-0.077 1.76-0.232 2.49-1.544 3.26-3.47l9.63-24.225c0.47-1.12 0.71-1.544 1.09-1.544 0.35 0 0.58 0.347 0.96 1.235 0.91 2.121 7.07 17.86 9.53 23.722 1.46 3.474 2.57 4.012 3.39 4.206 0.56 0.115 1.15 0.153 1.62 0.153 0.29 0 0.49 0.041 0.49 0.309 0 0.309-0.35 0.385-1.78 0.385-1.38 0-4.19 0-7.24-0.076-0.7-0.039-1.17-0.039-1.17-0.309 0-0.233 0.15-0.309 0.53-0.347 0.29-0.077 0.55-0.424 0.35-0.886l-3.08-8.179c-0.06-0.192-0.17-0.271-0.38-0.271h-8.55z"/>
      <path id="path16" fill="#005579" d="m242.3 39.36c0 0.424 0.09 0.579 0.35 0.694 0.83 0.271 1.97 0.385 2.93 0.385 1.53 0 2.03-0.153 2.73-0.655 1.14-0.848 2.25-2.624 2.25-5.786 0-5.477-3.6-7.059-5.85-7.059-0.97 0-1.67 0.038-2.06 0.153-0.26 0.079-0.35 0.232-0.35 0.541v11.727zm-4.51-3.047c0-5.865 0-6.945-0.09-8.18-0.08-1.309-0.38-1.927-1.64-2.197-0.32-0.077-0.96-0.115-1.52-0.115-0.41 0-0.64-0.079-0.64-0.347 0-0.271 0.26-0.35 0.85-0.35 2.05 0 4.45 0.118 5.27 0.118 1.29 0 4.22-0.118 5.42-0.118 2.4 0 4.98 0.232 7.06 1.662 1.08 0.732 2.61 2.697 2.61 5.282 0 2.856-1.21 5.477-5.07 8.642 3.43 4.321 6.06 7.753 8.35 10.145 2.14 2.238 3.72 2.509 4.27 2.623 0.44 0.077 0.79 0.115 1.09 0.115 0.32 0 0.47 0.118 0.47 0.309 0 0.309-0.27 0.385-0.74 0.385h-3.66c-2.14 0-3.1-0.191-4.1-0.732-1.64-0.886-3.1-2.7-5.27-5.671-1.53-2.121-3.28-4.744-3.78-5.321-0.21-0.232-0.44-0.271-0.7-0.271l-3.34-0.076c-0.21 0-0.33 0.076-0.33 0.306v0.541c0 3.588 0 6.636 0.21 8.256 0.12 1.118 0.35 1.965 1.49 2.121 0.59 0.076 1.44 0.153 1.88 0.153 0.32 0 0.47 0.118 0.47 0.309 0 0.27-0.27 0.385-0.77 0.385-2.22 0-5.06-0.115-5.65-0.115-0.73 0-3.13 0.115-4.69 0.115-0.49 0-0.76-0.115-0.76-0.385 0-0.191 0.15-0.309 0.62-0.309 0.55 0 1.02-0.077 1.37-0.153 0.77-0.156 0.97-1.003 1.12-2.121 0.2-1.62 0.2-4.668 0.2-8.218v-6.788z"/>
      <path id="path18" fill="#005579" d="m277.9 27.286l-5.71 0.153c-2.23 0.079-3.17 0.27-3.75 1.121-0.39 0.579-0.56 1.041-0.65 1.35-0.06 0.308-0.18 0.461-0.41 0.461-0.26 0-0.35-0.191-0.35-0.617 0-0.615 0.73-4.127 0.79-4.436 0.12-0.5 0.23-0.732 0.47-0.732 0.32 0 0.7 0.385 1.67 0.462 1.11 0.117 2.58 0.194 3.84 0.194h15.2c2.46 0 3.4-0.386 3.69-0.386 0.27 0 0.29 0.23 0.29 0.809 0 0.812-0.11 3.474-0.11 4.477-0.03 0.385-0.09 0.615-0.32 0.615-0.33 0-0.39-0.192-0.44-0.771l-0.03-0.424c-0.09-1.002-1.12-2.082-4.54-2.161l-4.84-0.115v15.815c0 3.55 0 6.598 0.18 8.254 0.14 1.082 0.35 1.929 1.52 2.085 0.53 0.076 1.38 0.153 1.96 0.153 0.41 0 0.62 0.118 0.62 0.309 0 0.27-0.32 0.385-0.73 0.385-2.55 0-4.98-0.115-6.04-0.115-0.88 0-3.31 0.115-4.86 0.115-0.5 0-0.76-0.115-0.76-0.385 0-0.191 0.14-0.309 0.61-0.309 0.59 0 1.06-0.077 1.38-0.153 0.79-0.156 1.02-1.003 1.14-2.121 0.18-1.62 0.18-4.668 0.18-8.218v-15.815"/>
      <path id="path20" fill="#005579" d="m307.75 36.313c0-5.865 0-6.945-0.09-8.18-0.06-1.309-0.44-1.965-1.29-2.159-0.44-0.115-0.93-0.153-1.37-0.153-0.41 0-0.62-0.079-0.62-0.385 0-0.233 0.29-0.312 0.91-0.312 1.46 0 3.87 0.118 4.98 0.118 0.97 0 3.25-0.118 4.69-0.118 0.52 0 0.82 0.079 0.82 0.312 0 0.306-0.24 0.385-0.62 0.385s-0.7 0.038-1.14 0.115c-1.06 0.194-1.35 0.85-1.44 2.197-0.05 1.235-0.05 2.315-0.05 8.18v6.788c0 3.742 0 6.789 0.14 8.448 0.12 1.041 0.38 1.735 1.53 1.891 0.55 0.076 1.4 0.153 1.96 0.153 0.44 0 0.61 0.118 0.61 0.309 0 0.27-0.29 0.385-0.73 0.385-2.52 0-4.95-0.115-5.98-0.115-0.9 0-3.31 0.115-4.86 0.115-0.5 0-0.76-0.115-0.76-0.385 0-0.191 0.15-0.309 0.61-0.309 0.59 0 1.03-0.077 1.38-0.153 0.79-0.156 1-0.809 1.11-1.929 0.21-1.621 0.21-4.668 0.21-8.41v-6.788"/>
      <path id="path34" fill="#005579" d="m330.69 53.825c-0.62-0.27-0.73-0.461-0.73-1.312 0-2.12 0.14-4.435 0.17-5.053 0.06-0.579 0.18-1.003 0.47-1.003 0.35 0 0.38 0.347 0.38 0.656 0 0.503 0.15 1.312 0.35 1.968 0.85 2.853 3.11 3.897 5.51 3.897 3.46 0 5.13-2.356 5.13-4.4 0-1.888-0.56-3.7-3.75-6.171l-1.79-1.388c-4.22-3.318-5.68-6.018-5.68-9.142 0-4.244 3.54-7.291 8.87-7.291 2.52 0 4.13 0.385 5.13 0.656 0.35 0.076 0.53 0.194 0.53 0.462 0 0.502-0.15 1.62-0.15 4.629 0 0.85-0.12 1.159-0.44 1.159-0.26 0-0.38-0.232-0.38-0.697 0-0.347-0.17-1.541-0.99-2.544-0.59-0.733-1.67-1.892-4.19-1.892-2.85 0-4.57 1.659-4.57 3.974 0 1.777 0.87 3.127 4.07 5.556l1.08 0.809c4.6 3.588 6.3 6.171 6.3 9.836 0 2.238-0.85 4.9-3.6 6.712-1.94 1.235-4.08 1.582-6.13 1.582-2.22 0-3.95-0.27-5.59-1.003"/>
      <path id="path36" fill="#C12239" d="m23.605 56.843c-21.319-1.635-27.802-13.942-20.66-27.798 3.847-7.462 9.724-15.489 2.7191-22.91-0.1875-0.2441-0.0322-0.4 0.2636-0.2647 15.945 6.3827 7.6493 19.269 4.9243 24.607-5.3666 10.521-1.942 23.298 12.75 26.048 0.325 0.071 0.302 0.345 0.003 0.318"/>
      <path id="path38" fill="#005579" d="m26.449 45.107l3.607-44.743-8.452-0.01159 4.547 44.755c0.023 0.289 0.278 0.28 0.298 0"/>
      <path id="path40" fill="#E89140" d="m36.099 22.586c5.265 4.156 13.851 27.271-7.107 33.934-0.34 0.088-0.313 0.347 0.003 0.314 33.339-4.182 21.884-28.204 7.386-34.534-0.387-0.188-0.572 0.056-0.282 0.286"/>
     </g>
    </g>
   </g>
  </g>
 </g>
</svg>
