<?xml version="1.0" encoding="UTF-8" standalone="no"?>
<svg xmlns:sketch="http://www.bohemiancoding.com/sketch/ns" xmlns="http://www.w3.org/2000/svg" height="300px" width="400px" version="1.1" xmlns:xlink="http://www.w3.org/1999/xlink" viewBox="0 0 400 300"><!-- Generator: Sketch 3.4.2 (15855) - http://www.bohemiancoding.com/sketch -->
 <title>Logo</title>
 <desc>Created with Sketch.</desc>
 <g id="Page-1" fill-rule="evenodd" sketch:type="MSPage" fill="none">
  <g id="Logo" sketch:type="MSArtboardGroup">
   <g id="Underberg_logo-2" transform="translate(55 90)" sketch:type="MSLayerGroup">
    <path id="path2719" sketch:type="MSShapeGroup" fill="#000" d="m61.302 88.821c0 0.9-0.412 2.183-1.319 2.878-0.791 0.609-1.88 0.935-1.922 0.947l-0.335 0.062v-24.553c0-2.254 0.999-3.583 3.145-4.184 0.154-0.044 0.306-0.071 0.452-0.083l-0.021 24.933zm-17.339 5.892c0 0.765-0.333 1.421-0.892 1.751-0.644 0.381-1.859 0.788-1.871 0.793l-0.276 0.092 0.023-36.034 0.532-0.191c0.328-0.117 1.31-0.367 1.915-0.111 0.323 0.138 0.591 0.317 0.591 1.158l-0.022 32.542zm-21.73 14.347c-0.253 0.05-0.481 0.07-0.697 0.07-0.271-0.9-0.388-2.1-0.333-3.6 0.043-1.16 0.014-33.3 0.004-43.86l-0.003-3.26c0-1.392 0.626-2.02 1.301-2.49 0.498-0.348 1.953-0.671 2.754-0.794 0.234-0.044 0.704-0.119 1.164-0.157l0.011 0.28 0.059 44.439c0 5.942-0.592 8.552-4.26 9.372zm55.982-19.436l-1.98-2.808-0.045 0.017-0.598 0.17-0.118 0.03c-0.001-1.608-0.023-29.494-0.023-29.494 0-2.248-1.308-4.924-3.252-6.66-0.491-0.438-1.009-0.799-1.547-1.098-1.665-1.323-3.802-1.951-6.077-1.759-4.14 0.35-7.29 3.671-8.773 5.564v-1.206l-14.852 4.502 0.003-5.372c0-1.191 0.323-2.05 1.394-2.867 1.038-0.795 2.869-1.045 2.887-1.048l0.439-0.058-0.009-6.092-1.974-2.292h-0.001v-0.017l-0.447 0.136c-0.296 0.08-0.643 0.184-1.032 0.308-1.625 0.482-5.411 1.587-9.039 2.526-3.845 0.994-9.982 2.313-10.083 2.335-0.079 0.015-4.37 0.803-10.299 1.647-4.9419 0.702-8.8585 1.102-12.005 1.424l-0.76538 0.077-0.01862 5.669 0.58345-0.087c1.5518-0.231 3.5054-0.317 3.9568-0.057 0.6969 0.401 1.0739 0.918 1.0739 2.494l0.0031 48.622c0 6.05 0.6161 10.33 3.4061 13.05 1.0517 1.36 2.4187 2.47 4.1447 3.39 3.946 2.1 8.877 1.27 13.616 0.07 10.08-2.55 13.278-8.61 13.977-18.09l0.028-0.01 0.133 0.14 2.19 2.06 9.732-2.81 7.501-2.274 9.641-3.123 8.253-2.69 0.004-0.358-0.028-3.961z"/>
    <path id="path2723" sketch:type="MSShapeGroup" fill="#000" d="m94.858 69.408l0.019-17.01c0-0.39-0.068-0.752-0.168-1.095-0.161-0.004-0.327 0.005-0.496 0.041-1.921 0.4-3.316 2.654-3.316 5.36l-0.003 17.397c0 0.577 0.054 1.098 0.16 1.548 0.229-0.023 0.473-0.071 0.737-0.171 2.262-0.848 3.067-3.692 3.067-6.07zm17.272 5.578v4.228l-14.727 6.61s-0.869-0.329-1.255-0.474c-1.83 2.195-4.291 4.7-7.479 5.457-2.364 0.561-4.586 0.216-6.425-0.998-0.811-0.536-1.525-1.243-2.153-2.073-1.732-1.55-2.86-4.252-3.433-8.232-0.535-3.709-0.794-9.054-0.794-16.344 0-8.624 1.264-14.756 3.867-18.75 2.133-3.273 5.755-5.076 10.199-5.076 2.041 0 3.932 0.664 4.933 1.086 0-1.25-0.003-6.888-0.003-6.888 0-1.454-0.405-1.556-0.796-1.654-0.296-0.075-1.15 0.118-1.769 0.341l-0.68 0.242-0.017-4.663 14.762-6.335 0.71-0.305v0.044l1.97 2.355s-0.04 47.49-0.05 49.483c0.15-0.044 0.27-0.083 0.35-0.112 0.38-0.166 0.81-0.352 0.81-0.352l1.98 2.41z"/>
    <path id="path2731" sketch:type="MSShapeGroup" fill="#000" d="m263 36.967c0 1.238-0.25 2.135-0.73 2.594-0.3 0.285-0.7 0.418-1.21 0.406l-0.07-0.007c-0.09-0.395-0.13-0.851-0.13-1.371l0.07-12.338 0.02-2.716c0.01-1.395 0.3-2.387 0.85-2.87 0.27-0.245 0.63-0.36 1.06-0.36 0.16 0.476 0.25 1.012 0.25 1.587l-0.11 15.075zm-1.15 15.452c-0.36 0.346-0.89 0.518-1.58 0.511-2.83-0.031-3.07-2.388-3.08-2.487l-0.03-0.37c1.13 0.35 2.34 0.555 3.61 0.557h0.01c0.6 0 1.19-0.103 1.73-0.254-0.01 0.938-0.22 1.628-0.66 2.043zm-36.04-19.366l-0.08-0.08-2.11-1.887c0.85-0.074 1.97-0.16 2.19-0.177v2.144zm-0.01 8.133c0 0.942-0.25 1.289-0.62 1.523-0.39 0.239-1.1 0.301-1.39 0.307 1.16-2.397 1.81-5.072 2.02-7.677l-0.01 5.847zm-12.88-20.159c-0.38 0.039-1.54 0.154-2.63 0.263v-1.341c0-1.658 1.01-3.014 2.41-3.225l0.24-0.014c0.02 0.148 0.04 0.296 0.04 0.452 0 0.006-0.04 2.8-0.06 3.865zm-0.43 15.38c-0.13 2.533-1.25 3.018-2.17 3.1-0.09-0.37-0.15-0.767-0.15-1.199 0 0-0.02-5.267-0.02-6.049 0.28-0.024 1.23-0.109 2.34-0.207l0.02 0.343c0 0.017 0.09 1.744-0.02 4.012zm-27.12 1.436c-0.01 2.396-0.74 5.154-2.74 5.716l-0.36 0.071c-0.15-0.548-0.22-1.194-0.22-1.925l0.11-16.289c0.01-2.716 1.25-4.803 2.94-4.963l0.14 0.002c0.16 0.459 0.25 0.964 0.24 1.493l-0.11 15.895zm-58.39 4.001c-0.16 0.059-1.51 0.646-3.41 1.354l0.01-1.834c0-2.528 1.63-4.409 2.66-4.939 0.27-0.139 0.43-0.186 0.67-0.231 0.05 0.195 0.08 0.395 0.08 0.601 0 0-0.01 4.504-0.01 5.049zm0 16.822c0 2.716-1.48 3.495-2.59 3.845-0.27 0.086-0.51 0.099-0.74 0.088-0.05-0.208-0.08-0.426-0.08-0.646 0 0 0.01-4.927 0.01-5.513 0.18-0.072 1.55-0.623 3.41-1.372l-0.01 3.598zm150.81-44.48l-1.96-2-0.02-0.004v-0.002l-13.15-3.2731s-0.02 1.1021-0.03 1.5371c-1.04-1.1189-2.95-2.6031-5.73-2.4566-2.65 0.1374-4.89 1.605-6.34 4.0646-0.74-2.034-2.14-3.6902-3.93-4.5599-0.87-0.6221-1.94-1.0403-3.26-1.22-2.75-0.3774-5.27 0.9603-6.52 1.7817v-1.4737l-13.32-0.2038 0.01 3.6907 0.53-0.026c0.29-0.014 0.98 0.035 1.24 0.278 0.27 0.246 0.51 0.478 0.51 1.742v9.081c-0.34-6.262-2.96-10.998-7.01-13.428-2.07-1.617-4.76-2.4671-8.03-2.4671-4.54 0-9.36 3.3354-11.21 7.7581-0.95 2.262-1.52 4.466-1.89 6.556-0.47-3.674-1.34-6.878-3.02-8.567-0.5-0.511-0.98-0.914-1.45-1.24-0.17-0.2144-0.34-0.4122-0.53-0.5919-2.39-2.2619-5.83-2.3615-9.43-0.2733-0.18 0.1087-0.38 0.231-0.57 0.3563 0.03-3.056 0.06-6.9667 0.06-6.9667l-1.96-2.2784-0.01 0.0015099-0.63 0.15703-14.36 3.5604 0.02 3.5301 0.64-0.1751c0.68-0.1888 1.58-0.3246 1.83-0.2265 0.19 0.0725 0.41 0.225 0.41 0.7761v10.076c-0.44-1.228-1.21-2.288-2.27-3.057-0.43-0.316-0.89-0.563-1.38-0.758-1.54-1.101-3.77-1.388-5.99-0.761-2.21 0.622-3.68 2.147-4.55 3.344v-1.525l-15.38 4.723 0.03 4.612 0.59-0.097c0.59-0.097 1.59-0.152 1.96 0.026 0.37 0.179 0.62 0.916 0.62 1.837v31.58c0 1.073-0.34 2.186-0.78 2.588-0.32 0.291-0.98 0.628-1.51 0.871 0.54-2.25 0.82-4.727 0.82-7.429v-1.229l-1.97-2.145c0.34-0.138 2.13-0.856 2.13-0.856l0.05-5.815c0-9.118-2.35-15.747-6.63-18.664-0.71-0.483-1.46-0.859-2.25-1.131-2.6-1.338-5.84-1.345-9.64-0.003-8.51 3.005-12.97 14.634-12.97 24.569v5.656c0 8.346 1.66 14.296 4.82 17.384 0.57 0.744 1.21 1.413 1.92 1.979 2.21 1.764 6.08 3.404 12.02 1.204 5.11-1.892 8.72-5.424 10.71-10.404l-0.02 1.695 0.02-0.005v0.005l2.4 1.662 10.42-3.739 8.79-3.075 0.04-3.521-1.95-2.387s-0.09 0.04-0.25 0.105l-0.46 0.171c-0.01 0.004-0.72 0.255-1.5 0.269v-24.819c0-1.155 0.21-1.808 0.51-2.2l0.03 6.485v-0.001 0.006l2.38 1.696 9.24-2.736v16.236c0 1.025-0.23 1.369-0.72 1.713-0.5 0.358-1.63 0.761-2.03 0.885l-0.35 0.112v4.102l0.02-0.004v0.006l2.37 1.695 13.82-4.088s0.03-0.893 0.04-1.412c1.66 0.811 5.82 2.336 10.11-0.168 3.31-1.935 4.03-4.452 4.94-7.638 0.46-1.59 0.79-3.798 1-6.654 0.68 3.178 1.81 5.681 3.39 7.445 0.53 0.894 1.14 1.679 1.85 2.34 2.34 2.188 5.66 3.068 9.85 2.615 4.87-0.527 8.2-3.299 10.26-6.91v2.601h0.01l2.29 1.817 16.98-0.244-0.01-3.521-1.96-2.157-0.02 0.004v-0.016l-0.55 0.045c-0.21 0.018-0.66 0.023-1.12-0.042-0.01-3.467-0.02-22.717-0.02-22.717 0-0.62 0.14-1.088 0.4-1.39l-0.01 4.754 0.02 0.003 2.25 1.851 6.37 0.764c-0.03 0.852-0.05 1.723-0.05 2.626v3.787c0 6.212 0.56 9.334 2.16 11.931 0.55 0.903 1.19 1.652 1.89 2.283 1.29 1.673 3.08 2.896 5.17 3.568l-0.27-0.039-10.52-1.415 0.01 1.921c0 1.093 0.45 2.971 1.75 4.863 2.19 3.636 7.3 7.821 16.23 7.821 7.27 0 10.8-3.226 10.8-9.867l0.02-32.875c0-1.042 0.33-1.383 0.93-1.652 0.25-0.105 0.87-0.033 1.21 0.05l0.64 0.153-0.04-4.806z"/>
    <path id="path2735" sketch:type="MSShapeGroup" fill="#fff" d="m33.432 43.057c3.808-0.984 7.752-2.142 9.247-2.585 0.001 0.94 0.004 3.792 0.004 4.405-0.679 0.133-2.012 0.463-2.937 1.17-0.821 0.628-1.913 1.69-1.913 3.643l-0.031 46.268c0 12.102-2.112 19.192-13.248 22.012-5.246 1.33-9.443 1.84-12.876 0.01-4.2235-2.24-5.049-6.74-5.049-13.76l-0.0016-48.611c0-1.463-0.2669-2.591-1.5703-3.343-0.8085-0.465-2.9405-0.279-4.0423-0.145 0.0031-0.779 0.0109-3.018 0.014-3.645 3.1329-0.32 7.0122-0.717 11.906-1.413 4.733-0.675 8.393-1.306 9.75-1.547 0.001 0.952 0.012 6.207 0.014 6.891-0.71 0.13-2.095 0.429-2.759 0.892-0.803 0.56-1.724 1.44-1.724 3.292l0.003 3.258c0.006 6.443 0.02 20.918 0.02 31.483 0 6.746-0.006 11.898-0.022 12.348-0.011 0.27-0.015 0.53-0.015 0.78 0 2.56 0.515 4.22 1.564 5.07 0.704 0.56 1.611 0.73 2.692 0.49 4.685-1.04 5.046-4.94 5.046-10.332l-0.057-44.44c0-0.669 0-2.702-1.915-3.06-0.52-0.097-1.285-0.023-1.822 0.051-0.001-0.941-0.012-6.261-0.014-6.921 1.4-0.304 6.407-1.4 9.736-2.261"/>
    <path id="path2739" sketch:type="MSShapeGroup" fill="#fff" d="m55.729 55.398c0.037-0.059 3.761-5.956 8.934-6.394 2.154-0.183 4.165 0.454 5.666 1.792 1.336 1.193 2.133 2.852 2.133 4.441l0.027 30.504c0 1.489 0.54 2.294 1.604 2.395 0.407 0.038 0.812-0.003 1.141-0.056 0.003 0.76 0.014 2.368 0.017 2.852-0.644 0.21-7.573 2.467-7.573 2.467s-6.809 2.208-8.956 2.902c-0.005-0.819-0.016-2.364-0.019-2.832 0.452-0.162 1.242-0.485 1.907-0.997 1.178-0.901 1.704-2.483 1.704-3.651l0.022-25.114c0-1.091-0.442-2.04-1.21-2.603-0.691-0.506-1.583-0.642-2.51-0.382-2.574 0.72-3.877 2.446-3.877 5.129v25.188c0 1.35 0.589 2.299 1.618 2.602 0.447 0.131 0.94 0.104 1.336 0.057 0.005 0.739 0.016 2.424 0.019 2.924-0.65 0.197-7.146 2.171-7.146 2.171s-7.63 2.207-8.769 2.527c0.017-0.86 0.056-2.776 0.065-3.25 0.438-0.157 1.212-0.456 1.735-0.764 0.865-0.511 1.38-1.48 1.38-2.593l0.021-32.543c0-1.075-0.37-1.711-1.201-2.059-0.661-0.283-1.438-0.206-1.987-0.092v-2.365c0.642-0.195 11.818-3.583 12.978-3.935v3.191l0.941-1.512z"/>
    <path id="path2743" sketch:type="MSShapeGroup" fill="#fff" d="m154.45 18.459c0.02-0.035 1.56-3.456 4.87-4.389 1.91-0.538 3.88-0.296 5.15 0.632 1.07 0.785 1.64 2.042 1.64 3.633 0 0-0.01 12.263-0.01 12.801-0.61 0.183-6.96 2.066-8.03 2.384-0.01-0.862-0.03-6.317-0.03-6.317 0-1.051-0.42-1.592-0.77-1.86-0.42-0.327-0.98-0.441-1.54-0.315-1.48 0.336-2.2 1.55-2.2 3.712v24.466c0 2.094 0.83 2.67 1.72 2.978 0.86 0.294 1.81 0.176 2.43 0.039-0.01 0.684-0.02 1.599-0.02 2.004-0.61 0.214-8.13 2.844-8.13 2.844s-8.29 2.973-9.49 3.405c0.01-0.779 0.02-1.925 0.02-2.328 0.53-0.227 1.6-0.714 2.16-1.216 0.76-0.687 1.1-2.157 1.1-3.309v-31.58c0-0.645-0.11-2.201-1.18-2.718-0.54-0.264-1.4-0.24-1.99-0.184 0-0.705-0.02-2.263-0.02-2.754 0.65-0.199 12.18-3.74 13.35-4.099 0 0.749 0.01 4.363 0.01 4.363l0.96-2.192z"/>
    <path id="path2747" sketch:type="MSShapeGroup" fill="#fff" d="m236.68 9.3995c0.02-0.0272 3.2-2.6107 6.55-2.1516 3.29 0.4484 4.9 2.4611 4.91 6.1471v0.255c0 2.819-0.19 5.902-0.31 7.963 0 0-0.05 1.018-0.08 1.637-0.9-0.107-6.77-0.813-7.52-0.903 0.01-0.612 0.02-4.306 0.02-4.306 0-2.499-1.49-2.77-2.12-2.77-1.06 0-2.29 0.725-2.29 2.765l0.04 22.415c0 1.137 0.51 2.079 1.45 2.654 0.68 0.415 1.6 0.491 2.18 0.497 0 0.537 0.01 1.338 0.01 1.867-0.88 0.013-14.38 0.204-15.28 0.218 0-0.524 0.01-1.232 0.01-1.718 0.42-0.044 1.01-0.147 1.47-0.429 0.76-0.47 1.1-1.196 1.1-2.356l0.02-29.123c0-1.556-0.38-2.032-0.82-2.4517-0.42-0.391-1.02-0.4831-1.47-0.5164 0-0.4846 0-1.1928-0.01-1.7152 0.91 0.0136 10.42 0.1585 11.3 0.1706v2.5407l0.84-0.6895z"/>
    <path id="path2751" sketch:type="MSShapeGroup" fill="#fff" d="m92.027 48.559c-2.424 0.506-4.117 3.108-4.117 6.325l-0.003 17.398c0 1.899 0.541 3.305 1.524 3.963 0.515 0.343 1.405 0.648 2.724 0.153 2.292-0.861 3.717-3.538 3.717-6.99l0.017-17.01c0-1.376-0.517-2.572-1.417-3.281-0.692-0.544-1.559-0.742-2.445-0.558m14.023-25.89c0 1.468-0.04 48.48-0.04 48.48 0 2.395 0.9 2.969 1.65 3.027 0.55 0.044 1.07-0.051 1.48-0.158v2.745c-0.53 0.242-12.019 5.416-13.287 5.988v-2.974l-0.931 1.381c-0.039 0.058-3.944 5.8-8.468 6.872-2.101 0.498-3.766 0.315-5.089-0.559-1.887-1.246-3.098-3.897-3.704-8.105-0.528-3.662-0.785-8.963-0.785-16.206 0-8.431 1.213-14.391 3.708-18.221 1.971-3.023 5.202-4.621 9.346-4.621 2.657 0 5.175 1.296 5.202 1.31l0.744 0.388-0.004-8.485c0-1.574-0.45-2.329-1.555-2.607-0.469-0.118-1.165 0.019-1.693 0.161-0.005-0.794-0.009-2.218-0.011-2.646 0.553-0.236 12.187-5.229 13.437-5.77"/>
    <path id="path2755" sketch:type="MSShapeGroup" fill="#fff" d="m210.56 13.931c-1.89 0.285-3.26 2.05-3.26 4.197l0.01 4.448 6.61-0.656 0.08-4.736c0-1.072-0.41-2.035-1.14-2.646-0.63-0.529-1.42-0.739-2.3-0.607m-7.72 32.265c-3.13-2.695-4.72-8.015-4.72-15.81l-0.03-3.283c0-3.698 0.27-8.599 2.42-13.728 1.7-4.0722 6.12-7.1433 10.27-7.1433 7.82 0 11.95 5.0003 11.95 14.461v7.49c-0.81 0.071-7.57 0.647-7.57 0.647l-8 0.71v0.451l0.02 6.496c0 1.424 0.43 2.644 1.19 3.351 0.49 0.46 1.11 0.69 1.79 0.665 1.43-0.052 3.17-0.795 3.34-4.046 0.04-0.885 0.06-1.684 0.06-2.336 0-0.554-0.01-0.996-0.02-1.305 0.82-0.072 8.13-0.705 9.06-0.786v0.839c-0.18 3.287-1.58 14.104-11.72 15.327-3.32 0.402-6.03-0.271-8.04-2"/>
    <path id="path2759" sketch:type="MSShapeGroup" fill="#fff" d="m124.43 33.46c-1.85 0.622-3.85 3.004-3.85 6.767v5.15l7.42-2.867v-5.701c0-1.376-0.47-2.458-1.32-3.047-0.65-0.453-1.47-0.562-2.25-0.302m-8.23 38.173c-3.68-2.469-5.63-8.554-5.63-17.596l0.01-5.658c0-9.591 4.22-20.791 12.3-23.642 3.94-1.392 7.19-1.246 9.66 0.438 3.61 2.464 5.52 8.209 5.52 16.615 0 0-0.04 4.579-0.04 5.152-0.6 0.24-17.42 7.021-17.42 7.021l-0.01 6.169c0 1.188 0.54 2.28 1.44 2.922 0.78 0.549 1.73 0.69 2.67 0.394 2.19-0.687 3.3-2.297 3.3-4.784v-3.157c0.55-0.222 8.67-3.498 9.85-3.977v0.304c0 7.132-2.06 16.397-11.86 20.029-4.04 1.496-7.33 1.419-9.79-0.23"/>
    <path id="path2763" sketch:type="MSShapeGroup" fill="#fff" d="m183.02 17.652c-2.25 0.213-3.83 2.655-3.85 5.937l-0.1 16.356c0 2.002 0.53 3.498 1.5 4.215 0.65 0.474 1.46 0.594 2.34 0.346 2.15-0.605 3.45-3.094 3.47-6.657l0.12-15.895c0.01-1.463-0.52-2.807-1.41-3.596-0.6-0.533-1.32-0.777-2.07-0.706m-3.27-16.38c-0.01 1.1354-0.1 11.532-0.1 11.532l0.84-0.7c0.02-0.016 1.88-1.554 3.28-2.3695 3.18-1.8406 6.16-1.7923 8.2 0.1344 2.82 2.6741 3.2 10.453 3.2 17.709 0 7.467-0.41 12.712-1.23 15.587-0.89 3.091-1.53 5.324-4.5 7.057-4.86 2.833-9.74-0.19-9.79-0.22l-0.76-0.479s-0.05 1.923-0.07 2.388c-0.63 0.187-11.08 3.279-12.23 3.619v-2.067c0.51-0.175 1.44-0.527 1.97-0.908 0.82-0.584 1.13-1.265 1.13-2.509v-42.422c0-1.1282-0.66-1.5465-1.05-1.6945-0.48-0.1827-1.25-0.0755-1.84 0.0468v-1.4932c0.69-0.1722 11.82-2.9323 12.95-3.2116"/>
    <path id="path2767" sketch:type="MSShapeGroup" fill="#fff" d="m259.14 18.116c-0.77 0.682-1.16 1.892-1.18 3.594l-0.02 2.566-0.07 12.493c0 3.583 1.99 4.159 3.17 4.184 0.79 0.015 1.44-0.214 1.94-0.687 0.69-0.658 1.04-1.768 1.04-3.299l0.1-15.07c0.02-2.36-1.24-4.248-2.92-4.391-0.83-0.071-1.52 0.134-2.06 0.61m-8.3 25.561c-1.49-2.425-2.02-5.416-2.02-11.427l0.01-3.787c0-6.252 0.63-11.221 1.84-14.368 1.19-3.11 3.48-4.9781 6.29-5.1245 3.68-0.1933 5.69 3.1135 5.72 3.1485l0.91 1.526s0.05-2.805 0.06-3.474c1.08 0.269 10.48 2.609 11.16 2.777 0 0.52 0.02 2.269 0.02 3.018-0.39-0.042-0.87-0.056-1.24 0.106-1.07 0.475-1.53 1.236-1.53 2.548l-0.02 32.877c0 6.142-3.02 8.88-9.78 8.88-12.24 0-15-7.314-15-9.878v-0.79c0.99 0.133 8.34 1.125 8.99 1.211 0.25 1.203 1.31 2.965 4.01 2.994 0.97 0.011 1.75-0.257 2.31-0.794 0.63-0.612 0.95-1.539 0.95-2.759l-0.05-4.347-0.78 0.52c-0.02 0.013-1.99 1.294-3.89 1.291-3.7-0.006-6.23-1.324-7.96-4.148"/>
    <path id="path2771" sketch:type="MSShapeGroup" fill="#000" d="m282.07 5.7574h1.11c0.71 0 1.17-0.1449 1.17-0.8667 0-0.6311-0.58-0.8138-1.17-0.8138h-1.11v1.6805zm-0.93-2.3902h2.18c1.31 0 1.96 0.5104 1.96 1.5628 0 0.8923-0.58 1.5371-1.47 1.5371l1.62 2.4566h-0.98l-1.6-2.4566h-0.78v2.4566h-0.93v-5.5565zm1.87 6.8168c2.24 0 3.93-1.7601 3.93-4.0325 0-2.2739-1.69-4.033-3.93-4.033-2.26 0-3.95 1.7591-3.95 4.033 0 2.2724 1.69 4.0325 3.95 4.0325zm-0.01-8.7751c2.69 0 4.87 2.129 4.87 4.7426s-2.18 4.7415-4.87 4.7415-4.87-2.1279-4.87-4.7415 2.18-4.7426 4.87-4.7426z"/>
   </g>
  </g>
 </g>
</svg>
